<?xml version="1.0" standalone="no"?>
<!DOCTYPE svg PUBLIC "-//W3C//DTD SVG 20010904//EN"
 "http://www.w3.org/TR/2001/REC-SVG-20010904/DTD/svg10.dtd">
<svg version="1.0" xmlns="http://www.w3.org/2000/svg"
 width="148.000000pt" height="155.000000pt" viewBox="0 0 148.000000 155.000000"
 preserveAspectRatio="xMidYMid meet">

<g transform="translate(0.000000,155.000000) scale(0.100000,-0.100000)"
fill="#000000" stroke="none">
<path d="M757 1529 c-41 -11 -90 -51 -112 -92 -17 -32 -24 -36 -69 -42 -59 -8
-135 -28 -167 -46 -23 -12 -23 -12 12 -30 43 -22 102 -73 76 -65 -73 23 -74
21 -11 -45 49 -51 65 -78 83 -132 13 -38 21 -70 19 -73 -3 -2 -19 30 -37 70
-34 77 -62 113 -80 101 -20 -12 -42 -66 -44 -106 -1 -44 -2 -44 -50 -24 -41
17 -145 20 -195 6 -27 -8 -32 -7 -32 8 0 10 -9 26 -20 36 -11 10 -20 26 -20
35 0 9 -10 26 -23 38 -21 20 -23 20 -46 3 -22 -17 -23 -21 -12 -49 9 -22 17
-28 32 -25 11 3 19 0 19 -7 0 -6 9 -24 19 -39 13 -17 17 -32 11 -41 -5 -8 -6
-37 -3 -64 4 -40 11 -56 35 -76 l30 -26 -41 -28 c-40 -28 -52 -46 -30 -46 25
0 127 63 132 81 7 28 25 23 20 -5 -4 -17 15 -53 70 -133 79 -115 261 -373 306
-432 26 -34 26 -34 3 -22 -38 20 -135 122 -187 197 -27 38 -56 73 -65 78 -8 5
-35 30 -60 56 l-45 47 5 -61 c7 -78 41 -139 129 -227 67 -67 157 -119 231
-134 24 -5 56 -28 100 -69 92 -88 146 -117 228 -124 l67 -5 -49 59 c-28 32
-84 97 -125 144 -41 47 -86 98 -100 114 l-26 30 30 -19 c38 -23 95 -67 164
-128 49 -42 58 -47 90 -42 188 30 344 140 413 291 20 41 23 66 23 159 0 103
-2 114 -32 178 -43 90 -125 172 -222 220 l-74 37 36 15 c53 22 64 20 170 -34
53 -26 97 -45 97 -41 0 19 -35 121 -57 163 -25 51 -66 77 -118 77 -34 0 -23
17 16 25 25 6 28 9 18 22 -16 19 -92 57 -146 73 -30 9 -45 20 -54 41 -24 60
-148 147 -182 128 -16 -9 -16 -12 -1 -35 18 -27 46 -134 36 -134 -4 0 -20 29
-35 63 -15 34 -34 70 -42 80 -17 23 -71 36 -108 26z m58 -105 c-47 -24 -71
-52 -97 -107 -21 -47 -23 -66 -23 -204 0 -167 -14 -174 -22 -11 -6 107 8 200
38 259 20 41 71 77 109 78 24 1 24 0 -5 -15z m266 -130 c13 -58 8 -164 -10
-208 -17 -43 -24 -25 -10 29 16 62 6 176 -20 245 -27 70 -26 74 4 25 14 -22
30 -63 36 -91z m-171 41 c0 -3 -15 -11 -34 -19 -21 -9 -45 -33 -66 -65 -18
-28 -36 -49 -38 -46 -3 3 8 31 24 62 20 39 37 59 54 64 31 9 60 11 60 4z m218
-86 c-2 -33 -10 -65 -18 -72 -10 -10 -12 -7 -6 13 3 14 6 54 6 90 1 52 3 61
11 46 6 -10 9 -45 7 -77z m-538 5 c-7 -45 -7 -83 -1 -109 l9 -40 1 34 c1 50 8
35 21 -44 6 -39 21 -92 35 -120 l24 -50 -24 28 c-13 15 -30 46 -36 70 -6 23
-20 60 -30 83 -22 46 -24 100 -8 174 16 73 22 56 9 -26z m399 47 c27 -27 39
-157 20 -215 -16 -49 -106 -146 -136 -146 -22 0 -86 65 -105 106 l-11 24 -24
-22 c-33 -31 -28 -5 7 35 16 19 52 44 80 56 43 19 54 30 79 79 34 65 40 48 11
-30 -18 -50 -24 -55 -80 -80 -33 -14 -60 -30 -60 -35 0 -14 69 -92 91 -103 15
-8 26 -4 57 24 48 44 93 124 85 154 -6 26 -6 26 -43 7 -17 -9 -30 -11 -30 -6
0 5 16 16 35 25 34 16 35 19 29 54 -3 20 -15 49 -25 65 -22 31 -9 37 20 8z
m-106 -62 c-14 -22 -40 -47 -57 -56 -17 -8 -43 -27 -58 -41 -15 -14 -30 -23
-33 -20 -8 8 45 58 80 75 16 9 43 31 58 49 38 46 43 43 10 -7z m80 -120 c-11
-12 -26 -18 -32 -15 -24 15 -6 31 39 35 10 1 8 -5 -7 -20z m-68 -49 c-3 -5
-10 -10 -16 -10 -5 0 -9 5 -9 10 0 6 7 10 16 10 8 0 12 -4 9 -10z m122 -46
c-5 -29 -3 -35 9 -30 8 3 -11 -25 -43 -62 -32 -37 -69 -84 -82 -105 -24 -39
-66 -67 -101 -67 -29 0 -25 -15 11 -40 16 -12 28 -25 25 -28 -9 -8 -86 30 -80
39 6 10 -73 88 -123 121 -18 13 -36 34 -39 48 -3 14 -7 31 -10 38 -2 7 -29 24
-60 38 -31 14 -55 27 -52 29 2 2 34 -5 71 -16 61 -18 67 -22 72 -52 8 -43 150
-167 179 -157 16 5 10 14 -35 53 -30 26 -46 45 -37 41 15 -5 16 -1 11 30 -5
32 4 132 12 124 2 -1 10 -45 19 -96 14 -78 21 -97 44 -117 15 -14 30 -25 34
-25 13 0 41 64 30 68 -39 13 -79 63 -97 122 -6 19 3 13 38 -26 26 -29 55 -54
65 -56 29 -8 108 71 122 121 13 51 25 54 17 5z m196 -74 c66 -73 82 -152 50
-249 -31 -98 -126 -179 -263 -225 -84 -28 -258 -49 -307 -38 -27 6 -65 45
-212 222 l-180 215 47 42 c59 53 73 55 32 3 l-31 -40 40 -47 c22 -27 64 -86
94 -132 l55 -83 16 24 c9 13 22 53 30 89 14 64 14 64 15 19 0 -25 -4 -65 -9
-88 -9 -38 -8 -49 10 -77 11 -18 39 -50 61 -70 l41 -37 77 7 c93 9 205 37 260
65 46 23 52 45 26 108 -18 43 -47 76 -90 104 l-30 20 30 -7 c70 -15 125 -71
140 -142 3 -18 10 -33 14 -33 18 0 63 44 88 88 22 37 27 58 27 111 0 73 -17
116 -67 169 -17 17 -26 32 -20 32 6 0 31 -22 56 -50z m-977 -41 c-21 -17 -30
-19 -39 -10 -15 15 7 31 42 31 l24 0 -27 -21z m248 -98 c3 -5 -1 -14 -9 -21
-8 -7 -15 -10 -15 -7 0 3 -3 12 -6 21 -7 17 20 23 30 7z m45 -54 c8 -10 7 -17
-1 -25 -16 -16 -25 -15 -32 4 -12 30 12 45 33 21z"/>
</g>
</svg>
