<?xml version="1.0" standalone="no"?>
<!DOCTYPE svg PUBLIC "-//W3C//DTD SVG 20010904//EN"
 "http://www.w3.org/TR/2001/REC-SVG-20010904/DTD/svg10.dtd">
<svg version="1.0" xmlns="http://www.w3.org/2000/svg"
 width="30.000000pt" height="659.000000pt" viewBox="0 0 634.000000 659.000000"
 preserveAspectRatio="xMidYMid meet">

<g transform="translate(0.000000,659.000000) scale(0.100000,-0.100000)"
fill="#000000" stroke="none">
<path d="M3825 6550 c-22 -5 -70 -20 -107 -35 l-67 -27 -118 28 c-148 36 -245
37 -358 5 -95 -27 -215 -84 -305 -143 -87 -57 -222 -194 -293 -295 -48 -69
-63 -83 -90 -87 -18 -3 -68 -10 -112 -16 -296 -42 -652 -168 -795 -281 -67
-53 -102 -122 -108 -215 -6 -101 15 -159 88 -237 41 -45 59 -73 64 -101 12
-64 51 -130 105 -179 28 -25 51 -50 51 -55 0 -6 -21 -51 -46 -101 l-46 -91
-122 0 c-66 -1 -161 -3 -211 -5 -271 -13 -371 -14 -384 -6 -13 8 -13 23 -3 99
7 49 12 94 12 101 0 6 -19 23 -42 38 -188 119 -368 231 -381 236 -9 3 -50 -18
-104 -55 -48 -33 -154 -105 -235 -160 -81 -54 -152 -106 -158 -113 -9 -11 2
-55 50 -202 35 -103 71 -212 82 -240 l19 -53 87 0 c111 0 117 -4 106 -67 -21
-117 2 -493 37 -615 10 -36 19 -73 19 -81 0 -8 -34 -60 -75 -115 -41 -55 -75
-106 -75 -113 0 -16 234 -310 258 -324 21 -12 134 -33 182 -34 19 0 85 15 145
34 61 19 118 35 127 35 33 0 86 -213 113 -453 16 -138 9 -263 -20 -361 l-15
-49 61 -120 c307 -608 852 -1075 1453 -1246 60 -17 117 -31 126 -31 10 0 39
-26 66 -58 89 -106 258 -274 349 -346 204 -163 375 -250 605 -310 192 -50 433
-63 646 -33 107 15 115 18 240 87 71 39 133 76 138 81 10 9 -6 25 -287 298
-64 63 -117 120 -117 128 0 7 10 15 23 17 770 161 1305 500 1624 1031 116 193
188 390 234 640 31 169 31 494 0 670 -43 240 -120 459 -232 658 -47 83 -50 92
-34 102 94 54 156 133 176 221 15 68 6 136 -51 359 -88 351 -284 767 -403 858
-24 18 -37 38 -42 63 -19 104 -90 183 -275 306 -120 80 -337 189 -488 244
l-103 38 -56 86 c-127 194 -379 399 -647 524 -138 65 -204 81 -281 66z m-350
-339 c69 -16 133 -35 142 -43 49 -40 207 -336 283 -533 24 -60 47 -114 52
-119 15 -18 8 112 -13 215 -33 168 -105 357 -159 419 -11 13 -20 29 -20 35 0
14 92 55 124 55 12 0 65 -21 117 -47 262 -133 487 -339 549 -505 11 -31 27
-61 34 -67 8 -6 54 -23 102 -38 127 -37 309 -113 417 -172 131 -74 249 -159
245 -178 -2 -10 -24 -21 -58 -29 -30 -8 -97 -28 -147 -46 -108 -36 -122 -58
-39 -58 67 0 223 -31 296 -59 122 -46 150 -78 250 -286 100 -206 230 -619 203
-646 -7 -7 -32 5 -74 34 -190 132 -644 354 -762 374 -25 4 -61 -6 -145 -41
-145 -59 -196 -86 -186 -96 5 -4 34 -16 64 -25 49 -16 108 -41 219 -92 62 -29
233 -134 311 -191 169 -125 364 -341 469 -518 95 -162 173 -380 207 -579 24
-141 24 -417 1 -549 -56 -306 -199 -580 -428 -820 -323 -338 -740 -544 -1281
-630 -136 -22 -152 -21 -180 11 -80 93 -341 314 -583 493 -246 182 -346 246
-304 193 8 -10 149 -170 314 -357 165 -187 336 -381 380 -431 44 -50 158 -179
253 -287 94 -108 172 -201 172 -206 0 -17 -32 -24 -140 -29 -328 -16 -694 174
-1055 548 -55 57 -118 124 -139 148 -37 42 -42 44 -140 63 -544 103 -1091 539
-1381 1101 l-52 102 0 130 c0 106 -5 150 -27 238 -30 127 -29 117 -13 117 6 0
42 -42 80 -94 104 -143 199 -232 383 -360 11 -8 56 -70 99 -138 43 -67 87
-134 97 -148 176 -239 299 -381 466 -541 167 -160 389 -322 330 -240 -18 23
-260 357 -446 615 -190 261 -298 414 -477 671 -316 455 -372 536 -462 662
-122 172 -137 206 -138 308 0 44 4 90 8 103 6 16 5 22 -6 22 -24 0 -60 -48
-72 -97 l-12 -48 -144 -78 c-291 -158 -347 -187 -361 -187 -21 0 -60 45 -56
65 1 10 70 65 153 124 82 59 151 113 152 121 1 9 -33 41 -78 75 -122 90 -135
108 -143 196 -3 41 -11 126 -18 190 -12 126 -5 169 33 190 11 5 19 16 19 23 0
7 -37 64 -82 127 -44 62 -81 120 -82 128 -1 8 10 20 22 27 13 6 29 17 35 23
15 15 -1 14 -83 -4 -106 -23 -99 -27 -157 89 -29 56 -53 109 -53 117 1 16 14
26 122 93 43 26 84 46 92 44 9 -2 54 -46 101 -98 82 -90 86 -97 81 -132 -6
-39 13 -71 107 -178 58 -67 59 -71 31 -123 -13 -26 -21 -47 -16 -47 5 0 39 15
74 34 76 39 91 41 442 56 l229 9 146 -60 c80 -33 153 -61 161 -62 12 -2 15 15
17 88 5 186 61 336 167 453 17 17 37 32 46 32 20 0 133 -116 178 -182 36 -52
83 -151 131 -270 35 -89 95 -214 116 -242 19 -25 29 -16 16 15 -5 13 -42 123
-81 243 -75 230 -98 285 -160 376 -31 46 -257 270 -365 363 -24 20 -27 28 -18
38 17 17 147 -12 232 -51 35 -17 65 -30 67 -30 21 0 -36 64 -111 126 -67 55
-195 134 -275 168 -96 42 -100 49 -54 80 52 34 224 101 338 132 114 30 373 74
443 74 79 0 96 11 138 87 123 220 300 375 498 433 82 24 76 24 222 -9z"/>
<path d="M3296 5804 c-151 -86 -186 -120 -247 -248 -82 -173 -128 -380 -150
-669 -11 -145 -11 -193 4 -365 18 -209 42 -364 77 -502 22 -88 46 -135 36 -70
-44 273 -60 492 -53 720 11 354 68 611 188 851 51 103 71 124 230 243 l77 57
96 -2 c53 -1 99 0 102 3 7 8 -126 38 -191 44 -47 5 -57 1 -169 -62z"/>
<path d="M4232 5803 c2 -5 25 -52 51 -106 60 -123 100 -245 134 -407 24 -112
26 -147 27 -340 0 -225 -12 -331 -55 -489 -11 -40 -18 -76 -15 -78 14 -14 32
16 88 146 47 110 78 287 78 446 -1 289 -117 641 -269 808 -23 25 -47 37 -39
20z"/>
<path d="M2643 5535 c-15 -28 -57 -173 -81 -280 -36 -156 -45 -249 -39 -398 5
-162 24 -237 81 -327 50 -79 52 -83 82 -214 43 -187 131 -345 240 -429 74 -58
81 -48 15 22 -13 14 -43 55 -66 91 -120 184 -189 466 -200 819 -3 79 -7 146
-9 148 -9 10 -17 -87 -20 -239 -1 -87 -5 -160 -8 -164 -28 -27 -78 184 -78
326 0 95 20 276 40 355 5 22 21 95 35 163 26 121 29 167 8 127z"/>
<path d="M4604 5474 c18 -70 18 -304 1 -440 -9 -75 -21 -150 -26 -168 -24 -83
9 -67 50 26 54 120 64 176 58 323 -5 110 -10 142 -34 204 -15 41 -34 76 -42
79 -11 4 -12 -2 -7 -24z"/>
<path d="M3668 5459 c-42 -4 -90 -15 -106 -23 -86 -45 -187 -217 -266 -454
-41 -122 -27 -119 50 13 45 76 188 276 234 326 28 32 57 47 155 83 66 24 121
49 123 55 4 13 -72 13 -190 0z"/>
<path d="M3960 5414 c0 -3 35 -40 78 -83 l79 -77 26 -140 c15 -77 27 -157 27
-177 0 -34 -4 -39 -32 -49 -18 -6 -72 -31 -120 -56 -87 -44 -135 -83 -124
-100 9 -15 123 20 201 61 69 37 95 45 95 29 0 -5 5 -45 11 -90 l11 -81 -45
-94 c-52 -111 -105 -192 -196 -301 -68 -81 -195 -197 -244 -222 -26 -14 -31
-13 -67 8 -91 54 -236 199 -336 337 -25 34 -44 69 -42 77 5 27 215 128 363
176 39 12 76 26 83 32 38 28 147 327 196 534 10 45 11 62 3 62 -7 -1 -66 -110
-132 -243 l-120 -242 -63 -22 c-195 -68 -373 -171 -457 -265 -66 -74 -140
-238 -107 -238 6 0 21 15 33 33 32 46 131 147 145 147 7 0 29 -33 49 -72 64
-125 126 -210 220 -304 102 -101 157 -131 219 -120 68 13 265 182 359 306 35
48 107 164 107 174 0 3 11 29 24 58 13 29 29 68 35 87 33 103 -19 684 -68 751
-30 42 -211 131 -211 104z"/>
<path d="M3850 5318 c-12 -13 -78 -94 -148 -180 -123 -151 -129 -158 -197
-188 -113 -51 -186 -100 -260 -175 -66 -66 -127 -166 -112 -181 3 -4 38 28 77
69 39 42 102 96 138 121 67 44 211 118 250 128 11 3 38 34 59 67 21 34 73 116
115 181 106 164 131 215 78 158z"/>
<path d="M4081 4714 c-19 -9 -73 -23 -120 -33 l-86 -17 2 -39 c4 -54 19 -68
66 -61 56 9 74 21 97 65 10 21 35 48 55 59 19 12 35 26 35 32 0 13 -7 12 -49
-6z"/>
<path d="M3726 4460 c-43 -8 -73 -37 -56 -54 14 -14 135 27 135 45 0 17 -26
20 -79 9z"/>
<path d="M4236 4423 c-20 -90 -123 -378 -141 -394 -11 -10 -57 -48 -102 -83
-45 -36 -105 -93 -135 -127 -53 -60 -53 -61 -96 -55 -78 10 -159 62 -267 170
-55 56 -120 134 -145 173 -70 112 -78 95 -29 -62 72 -233 181 -369 329 -412
30 -8 57 -17 58 -18 2 -2 -13 -51 -34 -110 -30 -87 -42 -109 -65 -121 -36 -18
-73 -18 -89 1 -7 9 -51 45 -96 81 -78 61 -85 68 -100 122 -8 31 -19 71 -24 87
-24 83 -80 489 -80 580 0 127 -60 -40 -80 -220 -12 -113 -9 -168 16 -298 9
-43 13 -82 9 -85 -3 -4 -21 2 -38 12 -71 42 -149 78 -155 71 -4 -3 1 -11 10
-16 74 -41 392 -315 425 -366 21 -32 10 -41 -64 -55 l-60 -11 -104 105 c-106
107 -262 244 -379 333 -36 27 -68 54 -72 59 -4 6 -19 63 -34 126 -14 63 -31
121 -36 127 -10 13 -48 25 -393 128 -104 31 -198 58 -207 61 -26 8 -22 -15 5
-25 12 -5 65 -29 117 -54 52 -24 120 -56 150 -69 165 -76 231 -111 239 -126 5
-9 14 -60 21 -112 7 -52 16 -106 22 -120 5 -14 46 -52 91 -85 227 -167 461
-374 525 -466 14 -20 14 -23 -6 -40 -29 -23 -28 -37 6 -45 58 -12 89 -26 151
-66 55 -36 73 -43 128 -46 63 -4 65 -4 54 16 -13 24 -89 81 -149 111 -32 16
-48 33 -62 64 -11 23 -16 45 -12 48 4 4 42 14 84 23 86 17 185 55 239 91 29
19 119 134 119 151 0 5 123 177 165 229 114 145 189 230 324 367 52 54 92 100
88 104 -3 3 -26 -5 -51 -20 -52 -30 -76 -33 -76 -8 0 9 7 58 15 107 17 101 20
195 6 195 -5 0 -12 -12 -15 -27z"/>
<path d="M4726 4188 c5 -7 22 -24 39 -38 101 -84 218 -229 275 -340 111 -220
128 -473 48 -715 -64 -191 -208 -371 -373 -465 -73 -42 -85 -36 -85 37 -1 53
-13 119 -38 198 -54 172 -226 339 -428 415 -83 31 -236 70 -247 63 -6 -3 33
-28 86 -54 299 -148 470 -391 494 -699 l6 -79 -48 -30 c-126 -80 -451 -195
-695 -247 -243 -52 -663 -81 -763 -53 -58 16 -261 223 -365 373 -45 65 -82
127 -82 137 0 10 6 36 14 56 37 97 67 370 65 601 l-1 137 -13 -60 c-7 -33 -21
-116 -30 -185 -22 -164 -59 -320 -91 -383 -41 -83 -90 -157 -104 -157 -8 1
-40 42 -70 93 -153 256 -425 639 -583 820 -42 49 -77 92 -77 97 0 10 165 214
232 287 42 47 50 70 18 53 -12 -6 -76 -57 -143 -113 -67 -56 -161 -133 -209
-171 -49 -38 -88 -73 -88 -77 0 -5 244 -304 338 -414 10 -11 121 -144 246
-295 261 -313 659 -789 754 -900 35 -41 73 -79 85 -84 35 -15 400 -20 527 -7
257 26 487 62 585 91 222 68 285 89 375 127 230 98 394 206 545 357 189 190
276 353 320 603 54 314 -36 625 -244 832 -78 78 -170 149 -239 185 -37 19 -46
20 -36 4z"/>
<path d="M1164 3901 c-35 -9 -95 -43 -113 -65 -10 -11 -7 -26 10 -65 12 -28
27 -51 33 -51 7 0 37 24 68 54 37 36 70 59 97 66 50 13 58 25 29 44 -30 19
-85 27 -124 17z"/>
<path d="M2073 3470 c-24 -10 -43 -24 -43 -31 0 -21 63 -109 79 -109 19 0 91
49 91 62 0 22 -63 98 -79 98 -3 0 -25 -9 -48 -20z"/>
<path d="M2238 3252 c-32 -13 -58 -29 -58 -34 0 -5 20 -41 45 -79 43 -66 46
-69 68 -57 64 38 87 54 92 66 5 14 -58 117 -77 124 -7 3 -39 -6 -70 -20z"/>
</g>
</svg>
