<?xml version="1.0" standalone="no"?>
<!DOCTYPE svg PUBLIC "-//W3C//DTD SVG 20010904//EN"
 "http://www.w3.org/TR/2001/REC-SVG-20010904/DTD/svg10.dtd">
<svg version="1.0" xmlns="http://www.w3.org/2000/svg"
 width="40" height="707.000000pt" viewBox="0 0 779.000000 707.000000"
 preserveAspectRatio="xMidYMid meet">

<g transform="translate(0.000000,707.000000) scale(0.100000,-0.100000)"
fill="#000000" stroke="none">
<path d="M4590 6831 c-480 -185 -515 -197 -518 -177 -1 11 1 76 5 144 7 102 6
121 -5 117 -28 -11 -1157 -628 -1167 -638 -7 -7 -7 -8 0 -4 15 8 1046 377
1054 377 4 0 1 -57 -5 -127 -6 -71 -10 -129 -9 -131 2 -2 225 118 497 266 271
148 536 292 588 320 52 29 91 52 85 51 -5 0 -242 -89 -525 -198z"/>
<path d="M2438 6940 c-201 -35 -345 -238 -309 -436 33 -177 167 -300 342 -313
l80 -6 285 -614 c157 -337 284 -614 282 -616 -2 -1 -123 -58 -270 -125 l-268
-123 0 -1473 0 -1473 63 29 c34 15 323 150 642 299 319 149 585 271 591 271 9
0 1257 -578 1285 -595 5 -4 9 560 9 1468 l0 1474 -269 125 -269 124 285 616
285 616 82 4 c65 3 93 10 139 33 150 76 237 244 208 401 -47 252 -301 386
-539 284 -61 -26 -154 -120 -182 -182 -58 -131 -37 -290 52 -401 l30 -38 -283
-610 c-155 -336 -286 -612 -291 -615 -5 -3 -126 49 -270 115 -143 67 -266 121
-272 121 -6 0 -129 -55 -274 -122 -144 -66 -264 -119 -265 -117 -6 6 -548
1170 -561 1201 -9 24 -7 31 16 55 15 16 39 54 53 85 72 158 40 323 -85 442
-83 80 -205 116 -322 96z"/>
<path d="M5652 2524 l3 -987 803 -374 c442 -205 805 -373 808 -373 2 0 4 442
4 983 l0 983 -802 374 c-442 205 -806 375 -811 377 -4 2 -6 -440 -5 -983z"/>
<path d="M1288 3127 l-798 -372 0 -982 c0 -541 3 -983 8 -983 4 1 367 169 807
374 l800 373 3 981 c2 783 0 982 -10 981 -7 0 -372 -167 -810 -372z"/>
<path d="M1951 947 l-1913 -892 1927 -3 c1060 -1 2790 -1 3846 0 l1920 3
-1343 624 c-2360 1098 -2497 1161 -2510 1161 -7 -1 -874 -402 -1927 -893z"/>
</g>
</svg>
