<svg id="svg" version="1.1" xmlns="http://www.w3.org/2000/svg" xmlns:xlink="http://www.w3.org/1999/xlink" width="400" height="400" viewBox="0, 0, 400,400"><g id="svgg"><path id="path0" d="M191.362 83.604 C 190.461 83.732,188.841 84.402,187.762 85.093 C 186.683 85.784,185.300 86.538,184.690 86.768 C 184.079 86.999,183.472 87.467,183.341 87.809 C 183.210 88.150,182.577 88.702,181.934 89.034 C 181.291 89.366,180.566 90.076,180.322 90.612 C 180.078 91.147,179.563 91.685,179.177 91.807 C 178.791 91.930,178.201 92.714,177.867 93.549 C 177.533 94.385,176.814 95.598,176.269 96.245 C 175.724 96.892,175.062 98.227,174.797 99.211 C 174.533 100.195,173.865 101.770,173.313 102.712 C 172.313 104.419,172.165 105.728,172.420 110.600 C 172.472 111.587,172.202 112.736,171.715 113.600 C 169.738 117.111,168.928 134.441,170.541 138.741 C 170.900 139.699,171.387 142.129,171.624 144.141 C 172.133 148.473,172.593 150.435,173.606 152.600 C 174.017 153.480,174.651 155.820,175.015 157.800 C 175.378 159.780,175.948 161.706,176.282 162.080 C 176.630 162.471,177.293 165.157,177.842 168.402 C 178.366 171.505,179.021 174.439,179.297 174.922 C 180.156 176.424,180.237 192.140,179.397 194.400 C 179.030 195.390,178.471 197.730,178.157 199.600 C 177.171 205.451,176.718 207.092,175.790 208.172 C 175.295 208.748,174.484 210.307,173.986 211.637 C 173.157 213.855,173.030 214.001,172.441 213.412 C 171.486 212.456,171.554 205.546,172.539 203.537 C 172.938 202.724,173.195 201.480,173.119 200.737 L 172.982 199.400 172.336 200.842 C 171.504 202.697,170.279 203.069,169.542 201.691 C 168.732 200.178,168.810 194.333,169.652 193.491 C 171.617 191.526,171.544 175.810,169.551 171.903 C 169.116 171.050,168.594 168.902,168.392 167.130 C 167.949 163.247,167.822 162.760,166.584 160.200 C 166.052 159.100,165.432 156.887,165.207 155.282 C 164.982 153.677,164.433 151.649,163.987 150.774 C 163.395 149.613,162.961 147.220,162.377 141.893 C 161.937 137.882,161.530 134.330,161.472 134.000 C 161.407 133.628,160.917 134.041,160.183 135.085 C 158.635 137.290,158.595 137.270,158.059 134.023 C 157.371 129.860,157.500 124.251,158.358 121.000 C 158.764 119.460,159.332 116.331,159.620 114.046 C 160.032 110.773,160.340 109.657,161.072 108.788 C 161.713 108.026,162.000 107.177,162.000 106.042 C 162.000 104.106,161.598 103.942,160.873 105.581 C 160.585 106.231,159.998 106.874,159.568 107.010 C 159.138 107.147,158.422 107.973,157.976 108.847 C 157.531 109.720,156.737 110.808,156.212 111.264 C 155.688 111.720,155.047 112.604,154.789 113.227 C 154.530 113.851,153.887 114.644,153.360 114.990 C 152.832 115.336,152.400 115.794,152.400 116.008 C 152.400 116.222,151.841 117.582,151.157 119.029 L 149.914 121.660 150.757 122.446 C 151.869 123.482,151.822 124.463,150.610 125.516 C 150.066 125.990,149.337 127.055,148.991 127.883 C 148.645 128.711,148.033 129.752,147.630 130.195 C 147.228 130.638,146.681 131.680,146.415 132.510 C 146.149 133.341,145.498 134.535,144.969 135.164 C 144.440 135.792,143.718 137.453,143.364 138.853 C 142.771 141.201,141.552 143.200,140.714 143.200 C 140.523 143.200,139.980 143.560,139.507 144.000 L 138.648 144.801 138.124 143.555 C 137.447 141.944,137.461 139.868,138.169 136.725 C 138.482 135.336,139.045 131.410,139.419 128.000 C 139.860 123.982,140.340 121.374,140.783 120.590 C 142.280 117.940,142.154 115.898,140.353 113.636 C 139.462 112.516,138.577 111.600,138.387 111.600 C 138.197 111.600,137.549 111.144,136.947 110.586 C 135.763 109.488,135.319 109.530,133.589 110.903 C 132.339 111.895,132.218 112.155,130.480 117.600 C 127.433 127.144,127.132 144.769,129.952 148.557 C 135.251 155.675,135.712 163.281,131.101 167.524 L 130.096 168.449 129.301 167.438 C 128.779 166.774,128.414 165.496,128.239 163.713 C 127.734 158.591,126.905 158.806,125.805 164.345 C 124.764 169.588,122.858 173.918,121.561 173.987 C 119.457 174.099,119.004 158.750,120.989 154.621 C 122.689 151.084,122.790 148.887,121.322 147.388 C 117.234 143.214,113.321 141.972,112.222 144.500 C 107.844 154.567,107.094 169.072,110.408 179.580 C 111.064 181.659,111.600 183.864,111.600 184.480 C 111.600 185.096,111.960 185.960,112.400 186.400 C 112.840 186.840,113.195 187.695,113.188 188.300 C 113.177 189.240,113.117 189.298,112.768 188.700 C 112.544 188.315,111.964 187.996,111.480 187.992 C 110.951 187.987,109.516 186.950,107.881 185.392 C 106.386 183.966,105.012 182.800,104.829 182.800 C 104.645 182.800,103.979 182.282,103.347 181.649 C 99.411 177.702,97.036 178.824,94.991 185.600 C 92.675 193.271,93.204 212.303,95.882 217.712 C 96.934 219.835,93.909 220.474,91.473 218.643 C 87.222 215.447,85.400 217.259,85.400 224.686 C 85.400 231.021,85.378 230.995,90.699 230.896 C 95.957 230.798,101.144 231.443,102.400 232.351 C 102.950 232.748,104.034 233.282,104.808 233.538 C 106.140 233.976,109.297 236.221,110.959 237.911 C 114.013 241.016,114.261 241.411,114.089 242.889 C 113.888 244.613,113.125 245.031,111.782 244.152 C 110.788 243.500,109.600 243.634,109.600 244.397 C 109.600 244.630,110.023 244.981,110.540 245.177 C 112.101 245.771,112.435 250.400,110.918 250.400 C 110.167 250.400,106.000 247.708,106.000 247.222 C 106.000 247.038,105.289 246.602,104.420 246.255 C 103.551 245.907,102.645 245.257,102.406 244.811 C 101.954 243.966,99.600 243.621,99.600 244.400 C 99.600 244.620,99.778 244.800,99.995 244.800 C 100.212 244.800,100.643 245.406,100.952 246.148 C 101.262 246.889,101.850 247.744,102.258 248.048 C 102.666 248.351,103.312 249.275,103.694 250.100 C 104.075 250.925,104.566 251.600,104.785 251.600 C 105.251 251.600,106.800 254.493,106.800 255.361 C 106.800 255.688,107.155 256.203,107.589 256.507 C 108.636 257.241,109.480 260.980,108.787 261.815 C 108.275 262.433,106.800 262.627,106.800 262.077 C 106.800 261.899,105.720 260.605,104.400 259.200 C 103.080 257.795,102.000 256.407,102.000 256.115 C 102.000 255.822,101.580 255.391,101.066 255.157 C 100.552 254.923,99.815 254.196,99.428 253.540 C 99.041 252.885,98.295 252.153,97.770 251.913 C 97.245 251.674,96.712 251.152,96.585 250.752 C 96.458 250.352,95.644 249.627,94.777 249.139 C 93.910 248.652,93.200 248.028,93.200 247.753 C 93.200 247.479,92.814 247.131,92.342 246.982 C 91.870 246.832,90.745 246.034,89.842 245.208 C 88.939 244.383,87.647 243.425,86.971 243.080 C 86.295 242.735,85.506 242.169,85.218 241.822 C 84.930 241.475,83.953 240.832,83.047 240.394 C 82.141 239.956,80.776 239.140,80.013 238.580 C 76.345 235.889,74.838 237.521,76.116 242.800 C 76.463 244.230,76.942 246.395,77.182 247.611 C 77.421 248.827,78.153 250.897,78.807 252.211 C 79.462 253.525,79.998 254.885,79.998 255.234 C 79.999 255.582,80.720 256.895,81.600 258.151 C 82.480 259.408,83.200 260.582,83.200 260.762 C 83.200 260.941,83.660 261.767,84.223 262.596 C 86.087 265.343,85.151 265.783,81.202 264.014 C 79.142 263.092,78.541 262.962,78.304 263.386 C 77.961 263.999,78.351 266.400,78.794 266.400 C 78.956 266.400,79.671 267.492,80.382 268.827 C 81.094 270.162,81.922 271.349,82.223 271.464 C 82.523 271.579,82.890 272.062,83.036 272.537 C 83.376 273.636,86.091 277.450,89.347 281.400 C 90.542 282.849,93.892 282.976,101.312 281.853 C 111.669 280.285,122.128 281.286,122.980 283.927 C 123.100 284.297,124.008 285.492,124.999 286.583 C 125.989 287.674,126.800 288.778,126.800 289.037 C 126.800 289.296,127.207 289.774,127.704 290.100 C 128.200 290.426,128.875 291.211,129.203 291.846 C 129.532 292.481,130.250 293.494,130.800 294.098 C 131.350 294.703,132.378 295.873,133.084 296.698 C 133.790 297.524,135.083 298.989,135.957 299.953 C 136.831 300.917,137.760 302.220,138.020 302.848 C 138.280 303.476,138.650 303.893,138.841 303.775 C 139.958 303.084,141.716 299.645,142.441 296.732 C 142.892 294.921,143.616 292.939,144.051 292.328 C 144.486 291.718,145.020 290.112,145.237 288.761 C 145.878 284.783,147.079 283.001,149.600 282.289 C 150.333 282.082,153.022 282.987,154.393 283.902 C 154.947 284.271,156.364 284.903,157.542 285.305 C 158.720 285.708,160.178 286.404,160.783 286.851 C 162.453 288.085,172.473 287.848,173.379 286.552 C 173.705 286.086,174.609 285.402,175.386 285.033 C 176.164 284.664,176.800 284.113,176.800 283.808 C 176.800 283.503,177.146 283.144,177.570 283.010 C 177.993 282.875,179.069 282.098,179.961 281.283 C 180.853 280.467,182.492 279.080,183.605 278.200 C 184.717 277.320,186.392 275.938,187.327 275.130 C 188.261 274.321,189.517 273.536,190.118 273.385 C 190.719 273.234,191.351 272.860,191.522 272.553 C 191.694 272.246,193.158 271.628,194.776 271.180 C 196.394 270.731,198.457 269.943,199.359 269.427 C 200.262 268.911,201.711 268.364,202.580 268.212 C 203.449 268.059,205.159 267.419,206.380 266.789 C 207.601 266.159,209.500 265.429,210.600 265.167 C 211.700 264.904,212.960 264.372,213.400 263.983 C 213.840 263.595,215.430 262.901,216.934 262.441 C 218.437 261.981,220.100 261.264,220.630 260.848 C 221.160 260.431,222.270 259.965,223.097 259.812 C 223.923 259.659,225.522 259.009,226.649 258.367 C 229.123 256.958,230.358 256.899,231.684 258.128 C 232.235 258.638,233.251 259.290,233.943 259.576 C 234.634 259.863,235.200 260.242,235.200 260.420 C 235.200 260.807,238.672 263.200,239.233 263.200 C 239.448 263.200,239.727 263.466,239.852 263.792 C 239.977 264.117,240.737 264.784,241.540 265.274 C 242.343 265.763,243.249 266.506,243.552 266.924 C 243.856 267.342,244.711 267.938,245.452 268.248 C 246.194 268.557,246.800 268.987,246.800 269.202 C 246.800 269.417,247.806 270.161,249.035 270.854 C 250.264 271.548,251.366 272.367,251.484 272.675 C 251.602 272.982,252.364 273.573,253.176 273.988 C 253.989 274.402,254.889 275.025,255.176 275.371 C 255.640 275.931,258.418 276.000,280.349 276.003 C 304.633 276.006,312.994 276.373,315.054 277.526 C 316.314 278.231,319.043 276.879,319.815 275.168 C 320.203 274.306,320.672 273.600,320.855 273.600 C 321.038 273.600,321.716 272.565,322.361 271.300 C 323.005 270.035,323.908 268.687,324.366 268.304 C 324.825 267.921,325.200 267.290,325.200 266.903 C 325.200 266.515,325.830 265.311,326.600 264.228 C 329.228 260.532,327.449 255.600,323.487 255.600 C 321.468 255.600,320.681 253.776,321.642 251.326 C 322.833 248.287,324.240 227.003,323.455 223.878 C 323.049 222.259,321.681 221.532,319.944 222.011 C 317.245 222.757,317.081 223.243,317.565 229.066 C 318.317 238.112,317.259 245.541,315.103 246.361 C 314.588 246.557,313.920 247.014,313.619 247.377 C 312.802 248.362,312.479 247.479,312.853 245.283 C 313.626 240.742,313.683 239.937,313.391 237.732 L 313.082 235.400 312.329 237.892 C 311.868 239.418,311.270 240.548,310.787 240.807 C 310.354 241.039,309.553 242.110,309.007 243.186 C 306.356 248.418,304.535 243.527,305.934 234.931 C 306.346 232.399,306.094 230.411,305.323 230.115 C 304.360 229.746,304.024 230.487,303.549 234.018 C 303.271 236.090,302.742 238.024,302.184 239.010 C 301.682 239.895,300.997 241.671,300.662 242.957 C 300.326 244.242,299.702 245.678,299.276 246.147 C 298.849 246.616,298.194 247.943,297.820 249.095 C 297.445 250.247,296.731 251.511,296.233 251.903 C 295.735 252.294,295.105 253.030,294.833 253.538 C 292.925 257.104,291.374 256.179,291.583 251.600 C 291.618 250.830,292.011 249.692,292.457 249.070 C 292.976 248.347,293.471 246.588,293.832 244.186 C 294.142 242.122,294.836 239.470,295.374 238.294 C 296.540 235.745,297.104 230.788,296.426 229.045 C 295.837 227.528,295.757 227.662,295.002 231.412 C 294.598 233.417,294.082 234.837,293.612 235.238 C 292.821 235.913,292.249 237.725,291.801 240.976 C 291.651 242.063,291.110 243.773,290.599 244.776 C 290.088 245.779,289.358 248.084,288.977 249.899 C 287.673 256.112,285.208 254.317,285.202 247.150 C 285.197 240.427,284.133 240.223,283.205 246.767 C 282.669 250.543,281.848 252.175,280.670 251.802 C 280.191 251.651,278.777 251.432,277.526 251.317 C 273.974 250.990,273.646 250.436,273.332 244.235 C 273.083 239.321,273.037 239.118,272.111 238.766 C 270.007 237.966,269.779 238.478,268.634 246.600 C 267.400 255.345,266.312 253.376,265.539 241.000 C 265.082 233.676,264.871 232.800,263.565 232.800 C 262.579 232.800,262.006 231.623,261.972 229.526 C 261.912 225.878,261.256 226.186,261.228 229.876 C 261.209 232.353,261.037 233.658,260.700 233.874 C 260.211 234.188,257.136 235.141,256.056 235.313 C 252.528 235.876,251.948 213.027,255.364 208.034 C 255.903 207.245,256.465 205.937,256.612 205.126 C 257.368 200.959,262.189 201.849,263.555 206.408 C 263.825 207.309,264.384 208.384,264.797 208.797 C 266.053 210.053,266.477 212.315,266.691 218.894 C 266.804 222.365,267.053 225.091,267.248 224.971 C 267.441 224.851,267.600 224.123,267.600 223.354 C 267.600 216.668,274.001 214.068,275.015 220.341 C 275.249 221.790,275.477 222.371,276.649 224.517 C 276.985 225.131,277.551 228.044,277.907 230.990 L 278.555 236.348 279.445 233.542 C 279.934 231.998,280.591 230.435,280.905 230.068 C 281.219 229.700,281.786 228.590,282.164 227.600 C 282.543 226.610,283.305 225.107,283.858 224.261 C 286.022 220.948,285.437 219.180,282.604 220.471 C 281.122 221.146,280.555 220.402,279.807 216.800 C 279.465 215.150,278.825 213.350,278.386 212.800 C 277.624 211.845,277.361 211.336,276.206 208.588 C 275.612 207.174,276.593 202.495,277.974 200.154 C 278.402 199.429,279.056 197.305,279.428 195.433 C 280.522 189.922,282.124 189.523,283.579 194.400 C 284.005 195.830,284.671 197.810,285.057 198.800 C 285.759 200.597,286.143 214.196,285.600 218.000 C 285.324 219.932,287.089 220.084,287.915 218.200 C 288.205 217.540,288.567 216.802,288.721 216.560 C 289.428 215.444,291.618 212.523,292.273 211.822 C 292.673 211.393,293.308 210.583,293.684 210.022 C 294.061 209.460,294.843 208.460,295.423 207.800 C 296.797 206.235,301.545 200.311,302.707 198.710 C 303.206 198.023,304.078 197.177,304.644 196.830 C 305.505 196.304,305.869 195.444,306.860 191.600 C 308.570 184.968,308.549 183.560,306.700 180.592 C 305.858 179.240,305.196 177.661,305.191 176.992 C 305.185 176.336,304.736 174.720,304.192 173.400 C 303.649 172.080,303.202 170.640,303.200 170.200 C 303.196 169.263,299.893 162.122,299.095 161.324 C 297.825 160.054,293.309 163.045,292.040 165.997 C 291.574 167.079,290.948 168.107,290.649 168.282 C 290.349 168.457,289.731 169.320,289.275 170.200 C 285.818 176.875,282.419 176.949,282.406 170.349 C 282.399 166.541,281.657 165.517,280.568 167.812 C 280.187 168.614,279.543 169.479,279.138 169.732 C 278.732 169.985,278.400 170.333,278.400 170.505 C 278.400 171.188,276.318 173.909,275.431 174.383 C 274.913 174.661,274.292 175.318,274.053 175.844 C 273.568 176.907,271.831 177.180,271.474 176.249 C 271.070 175.196,271.700 172.375,272.459 171.844 C 272.871 171.555,273.493 170.347,273.842 169.160 C 274.191 167.972,274.896 166.444,275.409 165.765 C 275.938 165.064,276.541 163.431,276.802 161.987 C 277.056 160.588,277.607 158.770,278.028 157.946 C 278.448 157.122,279.078 154.772,279.428 152.724 C 279.777 150.676,280.346 148.127,280.691 147.061 C 281.727 143.857,280.485 129.708,278.840 125.980 C 278.409 125.001,277.747 122.940,277.371 121.400 C 276.994 119.860,276.456 118.330,276.175 118.000 C 275.893 117.670,275.276 116.410,274.803 115.200 C 271.939 107.875,269.987 106.950,264.678 110.400 C 261.357 112.559,261.271 112.723,262.253 115.051 C 262.613 115.903,263.161 117.679,263.471 118.997 C 263.782 120.315,264.478 122.298,265.019 123.404 C 266.030 125.468,266.094 125.946,267.184 139.400 C 267.921 148.487,267.782 149.472,265.603 150.598 C 264.052 151.401,263.752 150.838,262.576 144.919 C 262.019 142.120,261.380 140.046,260.875 139.405 C 260.430 138.839,259.945 137.658,259.797 136.780 C 259.648 135.902,258.913 134.292,258.163 133.201 C 257.414 132.111,256.800 130.900,256.800 130.510 C 256.800 130.119,256.211 129.138,255.491 128.330 C 254.771 127.521,253.948 126.211,253.661 125.418 C 253.374 124.625,252.692 123.528,252.145 122.981 C 251.413 122.249,251.183 121.646,251.275 120.693 C 251.458 118.798,252.848 118.722,254.518 120.515 C 256.085 122.197,256.800 122.035,256.800 120.001 C 256.800 118.819,256.528 118.211,255.611 117.346 C 254.958 116.729,254.053 115.364,253.600 114.312 C 253.148 113.260,252.614 112.400,252.414 112.400 C 252.215 112.400,251.646 111.678,251.150 110.796 C 250.654 109.914,249.833 108.920,249.324 108.587 C 248.816 108.254,248.400 107.803,248.400 107.585 C 248.400 107.081,242.515 101.156,241.080 100.215 C 240.486 99.826,240.000 99.324,240.000 99.098 C 240.000 98.339,238.654 97.650,237.930 98.037 C 237.131 98.465,237.907 101.503,239.198 103.000 C 239.578 103.440,240.183 105.004,240.543 106.476 C 240.902 107.948,241.648 109.999,242.198 111.035 C 242.749 112.071,243.203 113.477,243.207 114.160 C 243.217 115.975,244.303 122.311,244.889 123.970 C 245.966 127.022,245.562 138.675,244.296 141.087 C 243.693 142.234,243.200 143.344,243.200 143.554 C 243.200 143.763,242.821 144.804,242.358 145.867 C 241.311 148.273,241.048 147.794,240.239 142.007 C 239.302 135.301,238.622 134.916,238.036 140.761 C 237.526 145.856,237.115 147.540,235.976 149.200 C 235.598 149.750,235.087 151.506,234.841 153.102 C 234.574 154.828,233.900 156.943,233.177 158.321 C 232.438 159.731,231.808 161.728,231.569 163.419 C 231.017 167.323,230.437 169.279,229.886 169.095 C 228.129 168.510,227.885 156.931,229.561 153.665 C 230.156 152.507,230.643 150.382,231.028 147.265 C 231.346 144.699,231.977 141.160,232.431 139.400 C 233.553 135.051,233.351 124.353,232.027 118.000 C 231.545 115.690,231.022 111.873,230.864 109.518 C 230.628 106.005,230.417 105.019,229.687 104.032 C 229.198 103.371,228.603 101.922,228.365 100.812 C 228.095 99.554,227.419 98.180,226.566 97.160 C 225.815 96.260,225.200 95.309,225.200 95.045 C 225.200 94.782,224.390 93.772,223.400 92.800 C 222.410 91.828,221.600 90.801,221.600 90.517 C 221.600 90.233,221.410 90.000,221.178 90.000 C 220.945 90.000,219.643 89.100,218.283 88.000 C 216.924 86.900,215.598 86.000,215.336 86.000 C 215.075 86.000,214.285 85.515,213.580 84.922 C 212.149 83.718,208.073 83.109,207.061 83.949 C 205.621 85.145,206.841 87.319,209.389 88.094 C 210.698 88.493,212.136 89.140,212.584 89.533 C 213.033 89.926,213.875 90.449,214.455 90.694 C 216.615 91.610,222.492 97.418,223.416 99.549 C 224.890 102.952,223.886 103.600,217.137 103.600 C 211.019 103.600,210.432 103.792,208.983 106.269 C 208.361 107.331,207.642 108.412,207.385 108.670 C 206.680 109.378,206.346 112.714,206.808 114.428 C 207.314 116.309,208.531 116.780,212.805 116.746 C 214.457 116.733,216.628 116.845,217.628 116.995 C 220.789 117.469,221.511 115.238,218.462 114.417 C 216.674 113.935,216.145 113.112,217.046 112.212 C 218.021 111.236,219.541 111.469,220.628 112.761 C 221.174 113.409,222.249 114.074,223.063 114.266 C 224.916 114.705,225.733 115.881,224.642 116.541 C 224.226 116.794,223.432 117.375,222.879 117.834 L 221.872 118.669 224.774 119.421 C 227.380 120.097,227.800 120.348,228.905 121.887 C 229.582 122.829,230.454 123.600,230.844 123.600 C 231.700 123.600,232.080 124.125,231.784 124.898 C 231.474 125.705,229.011 126.799,227.486 126.806 C 225.049 126.818,224.278 128.415,223.630 134.800 C 223.007 140.946,222.937 141.332,222.081 143.300 C 221.674 144.235,221.012 145.765,220.610 146.701 C 219.877 148.404,219.276 148.755,216.200 149.274 C 215.547 149.385,215.355 149.824,215.157 151.665 C 214.617 156.674,211.273 158.686,207.310 156.387 C 204.290 154.635,196.597 154.578,195.296 156.297 C 194.950 156.755,194.015 157.012,192.295 157.122 C 189.166 157.321,188.635 156.826,187.700 152.843 L 187.029 149.980 184.781 149.161 C 181.685 148.032,180.293 145.719,179.628 140.600 C 179.371 138.620,178.589 134.705,177.889 131.900 L 176.618 126.800 174.158 126.800 C 170.800 126.800,169.327 123.892,172.143 122.822 C 172.673 122.620,173.485 121.923,173.949 121.272 C 174.412 120.621,175.288 119.969,175.896 119.822 C 180.335 118.750,180.926 118.332,179.024 117.609 C 176.609 116.691,177.046 114.353,179.741 113.776 C 180.434 113.628,181.320 113.170,181.711 112.758 C 183.037 111.363,185.346 111.272,185.854 112.596 C 186.200 113.498,185.265 114.400,183.984 114.400 C 182.339 114.400,181.600 114.789,181.600 115.653 C 181.600 116.799,183.412 117.358,185.600 116.886 C 186.590 116.673,188.525 116.588,189.901 116.697 C 192.529 116.906,194.800 116.305,194.800 115.400 C 194.800 115.124,195.070 114.674,195.400 114.400 C 196.518 113.472,194.298 105.899,192.723 105.264 C 192.537 105.190,192.087 104.830,191.722 104.464 C 191.185 103.927,189.865 103.751,184.829 103.545 C 181.403 103.405,178.561 103.270,178.514 103.245 C 176.895 102.398,178.304 99.449,182.200 95.527 C 185.424 92.280,185.998 91.790,187.401 91.085 C 188.061 90.753,188.943 90.105,189.359 89.645 C 189.775 89.185,191.178 88.511,192.476 88.147 C 197.846 86.640,196.907 82.812,191.362 83.604 M177.613 106.616 C 178.952 108.229,176.222 111.969,174.253 111.220 C 173.019 110.751,172.995 110.594,173.840 108.549 C 174.983 105.781,176.342 105.085,177.613 106.616 M227.672 106.500 C 228.015 106.775,228.484 107.780,228.714 108.734 C 229.573 112.295,226.467 113.127,225.396 109.622 C 225.231 109.085,224.715 108.332,224.248 107.951 C 223.238 107.124,223.643 106.541,225.400 106.291 C 226.060 106.197,226.701 106.093,226.824 106.060 C 226.946 106.027,227.328 106.225,227.672 106.500 M199.914 120.142 C 198.813 120.433,198.264 120.879,197.797 121.862 C 197.451 122.592,196.815 123.378,196.384 123.609 C 195.051 124.322,195.283 127.074,196.700 127.354 C 198.111 127.633,205.063 127.470,205.382 127.151 C 205.872 126.661,206.311 124.471,205.985 124.140 C 205.801 123.953,205.383 123.283,205.057 122.650 C 204.113 120.821,201.734 119.661,199.914 120.142 M197.786 133.914 C 196.250 134.136,192.798 135.280,192.575 135.641 C 191.999 136.573,192.823 137.571,193.847 137.182 C 194.400 136.972,198.160 136.800,202.202 136.800 C 207.164 136.800,209.642 136.655,209.828 136.355 C 210.717 134.917,202.445 133.240,197.786 133.914 M255.067 137.818 C 256.454 139.296,257.374 140.730,257.828 142.118 C 258.202 143.263,258.828 144.507,259.218 144.882 C 260.263 145.886,261.522 155.358,260.958 157.969 C 259.681 163.877,257.493 162.515,256.819 155.393 C 256.449 151.475,255.949 150.000,254.994 150.000 C 254.367 150.000,254.269 149.650,253.680 145.344 C 253.427 143.496,252.974 142.062,252.397 141.281 C 251.411 139.948,251.207 137.155,252.024 136.171 C 252.710 135.344,252.784 135.384,255.067 137.818 M148.571 143.429 C 149.312 144.169,149.315 144.234,148.783 147.600 C 148.556 149.030,148.044 150.652,147.643 151.205 C 147.243 151.759,146.787 153.289,146.629 154.605 C 146.265 157.636,145.301 162.464,144.593 164.800 C 144.293 165.790,143.839 168.423,143.584 170.652 C 143.119 174.725,142.603 176.404,141.727 176.693 C 139.177 177.533,138.332 157.423,140.773 153.989 C 141.169 153.433,141.903 151.850,142.406 150.471 C 142.909 149.092,143.640 147.793,144.030 147.584 C 144.420 147.375,145.193 146.213,145.748 145.002 C 146.790 142.725,147.482 142.339,148.571 143.429 M198.200 143.237 C 194.769 143.492,192.800 143.908,192.800 144.379 C 192.800 145.836,206.538 146.552,208.296 145.187 C 210.224 143.690,205.194 142.719,198.200 143.237 M250.872 146.700 C 251.200 147.085,251.691 147.964,251.963 148.653 C 252.236 149.342,252.878 150.271,253.390 150.717 C 254.184 151.407,254.354 152.021,254.539 154.863 C 254.659 156.699,254.947 160.990,255.180 164.400 C 257.027 191.432,252.822 210.725,249.600 190.000 C 248.548 183.230,247.643 181.102,246.436 182.557 C 243.979 185.517,242.397 181.146,242.402 171.410 C 242.409 160.688,245.469 157.933,246.635 167.600 C 246.754 168.590,246.953 169.850,247.078 170.400 L 247.304 171.400 247.700 170.200 C 247.917 169.540,248.214 164.230,248.358 158.400 C 248.652 146.549,249.073 144.588,250.872 146.700 M162.188 161.978 C 162.523 162.625,163.277 163.390,163.863 163.678 C 165.175 164.320,165.820 166.083,166.444 170.729 C 166.729 172.846,167.240 174.746,167.755 175.600 C 168.524 176.873,168.613 177.714,168.742 184.894 L 168.883 192.788 167.842 193.184 C 167.046 193.487,166.800 193.857,166.800 194.755 C 166.800 196.715,165.700 201.822,164.880 203.665 C 164.456 204.619,163.900 207.110,163.645 209.200 C 163.390 211.290,163.087 213.750,162.971 214.667 C 162.743 216.475,162.251 217.047,160.115 217.989 C 157.019 219.355,154.534 214.887,155.759 210.157 C 156.095 208.860,156.543 206.266,156.756 204.392 C 157.019 202.079,157.481 200.332,158.194 198.958 C 158.826 197.740,159.443 195.591,159.743 193.566 C 160.017 191.715,160.577 189.570,160.987 188.800 C 161.982 186.935,162.322 173.774,161.525 168.000 C 160.737 162.291,161.020 159.718,162.188 161.978 M154.215 172.617 C 154.504 173.287,154.944 175.717,155.191 178.017 C 155.438 180.318,155.810 182.830,156.018 183.600 C 157.584 189.407,155.429 196.800,152.172 196.800 C 151.163 196.800,150.400 197.822,150.400 199.174 C 150.400 200.202,150.187 200.206,148.909 199.200 C 148.350 198.760,147.677 198.400,147.413 198.400 C 146.418 198.400,145.889 195.344,145.707 188.545 C 145.497 180.734,145.896 179.074,148.484 177.010 L 149.860 175.912 149.308 173.856 C 147.588 167.446,151.543 166.447,154.215 172.617 M237.600 174.399 C 237.830 174.829,238.131 177.170,238.271 179.601 C 238.590 185.177,239.331 186.868,242.620 189.517 C 245.223 191.615,245.937 193.468,246.629 199.931 C 246.786 201.399,247.270 203.410,247.706 204.400 C 249.308 208.046,249.023 220.926,247.328 221.491 C 246.882 221.639,245.200 217.749,245.200 216.569 C 245.200 215.278,243.508 212.752,242.009 211.806 C 240.282 210.715,239.994 210.014,239.142 204.809 C 238.724 202.251,238.608 201.984,238.347 202.961 C 238.004 204.242,236.517 206.000,235.776 206.000 C 235.063 206.000,234.132 203.758,233.617 200.800 C 233.368 199.370,232.878 196.764,232.529 195.009 C 231.870 191.697,231.967 186.229,232.729 183.800 C 232.936 183.140,233.322 181.160,233.587 179.400 C 234.478 173.492,236.059 171.521,237.600 174.399 M263.492 175.629 C 265.421 178.219,265.990 179.691,266.471 183.336 C 266.707 185.131,267.241 187.690,267.657 189.022 C 268.641 192.173,268.755 198.217,267.847 199.124 C 267.290 199.681,267.088 199.666,265.790 198.971 C 263.556 197.775,263.249 197.221,262.234 192.559 C 261.712 190.162,260.985 187.403,260.620 186.429 C 259.575 183.646,259.542 175.570,260.571 174.433 C 261.558 173.341,261.890 173.477,263.492 175.629 M130.943 175.000 C 133.442 177.499,131.594 193.226,128.455 196.172 L 127.205 197.345 126.238 196.436 C 124.892 195.171,123.905 195.492,123.281 197.395 C 121.922 201.543,120.304 200.953,120.065 196.222 C 119.943 193.810,120.073 192.935,120.761 191.528 C 121.226 190.578,121.946 188.412,122.361 186.716 C 122.777 185.020,123.495 183.151,123.957 182.564 C 124.419 181.976,124.994 180.754,125.234 179.848 C 125.982 177.026,129.760 173.817,130.943 175.000 M297.079 176.100 C 298.484 178.710,298.137 193.358,296.581 197.100 C 294.949 201.025,293.446 195.972,293.226 185.820 C 293.206 184.902,293.093 184.747,292.720 185.120 C 292.456 185.384,291.988 185.600,291.680 185.600 C 290.597 185.600,288.477 186.862,288.277 187.627 C 288.033 188.560,286.330 188.680,285.611 187.814 C 284.798 186.834,285.493 184.273,287.027 182.599 C 287.782 181.774,288.400 180.942,288.400 180.750 C 288.400 179.671,294.452 174.879,295.890 174.820 C 296.159 174.809,296.694 175.385,297.079 176.100 M107.840 194.706 C 108.082 194.868,108.352 195.206,108.440 195.457 C 108.528 195.708,109.997 197.386,111.704 199.185 C 113.412 200.985,115.081 202.984,115.415 203.628 C 115.748 204.273,116.180 204.800,116.375 204.800 C 116.569 204.800,117.136 205.641,117.633 206.669 C 118.131 207.697,118.842 208.842,119.212 209.212 C 120.595 210.595,121.318 215.188,121.023 220.717 C 120.449 231.469,118.075 233.788,116.805 224.837 C 116.592 223.337,115.964 221.230,115.409 220.155 C 114.854 219.080,114.121 217.122,113.780 215.805 C 113.439 214.487,112.847 213.047,112.464 212.605 C 112.080 212.162,111.444 211.088,111.050 210.217 C 110.344 208.657,109.586 207.606,106.770 204.286 C 105.396 202.666,103.600 198.266,103.600 196.521 C 103.600 195.534,104.248 194.941,105.600 194.693 C 107.212 194.396,107.378 194.397,107.840 194.706 M134.541 203.658 C 134.600 206.263,133.331 211.702,132.436 212.685 C 132.077 213.078,131.416 213.988,130.967 214.706 L 130.151 216.012 129.206 215.006 C 127.923 213.641,127.041 213.741,125.717 215.400 C 124.540 216.875,123.595 217.158,122.849 216.259 C 122.171 215.442,122.768 212.099,123.814 210.856 C 124.306 210.272,124.999 209.099,125.353 208.251 C 125.707 207.403,126.522 206.111,127.163 205.381 C 127.805 204.650,128.442 203.698,128.579 203.265 C 128.717 202.832,129.453 202.181,130.215 201.820 C 130.977 201.458,131.600 201.004,131.600 200.811 C 131.600 200.131,133.008 200.139,133.747 200.824 C 134.281 201.319,134.507 202.125,134.541 203.658 M199.804 203.205 C 200.338 203.794,200.582 204.866,200.718 207.205 C 200.914 210.598,201.183 210.932,202.627 209.574 C 203.111 209.120,204.557 208.474,205.841 208.139 C 207.125 207.803,208.673 207.175,209.281 206.743 C 209.894 206.306,211.945 205.677,213.893 205.329 C 215.822 204.984,218.243 204.363,219.274 203.951 C 223.500 202.258,228.400 203.291,228.400 205.874 C 228.400 206.387,228.787 207.121,229.260 207.504 C 231.922 209.658,232.114 210.209,230.650 211.482 C 230.127 211.936,229.368 212.869,228.963 213.554 C 228.559 214.239,227.951 214.806,227.614 214.813 C 227.276 214.820,226.673 215.074,226.272 215.377 C 225.393 216.043,225.701 216.177,229.106 216.609 C 231.791 216.950,232.256 217.667,231.590 220.440 C 231.330 221.526,231.232 222.874,231.373 223.435 C 231.747 224.926,224.572 232.905,221.122 234.836 C 220.806 235.013,219.841 235.805,218.977 236.595 C 218.114 237.386,217.007 238.134,216.518 238.256 C 216.029 238.379,215.531 238.786,215.412 239.161 C 215.293 239.536,214.387 240.236,213.398 240.716 C 212.409 241.197,211.600 241.768,211.600 241.987 C 211.600 242.205,210.925 242.735,210.100 243.165 C 209.275 243.594,208.101 244.419,207.492 244.997 C 206.882 245.575,205.757 246.309,204.992 246.629 C 204.226 246.949,203.600 247.385,203.600 247.597 C 203.600 247.810,202.904 248.339,202.053 248.773 C 201.203 249.207,199.988 249.990,199.353 250.514 C 198.719 251.038,197.210 251.783,196.000 252.169 C 194.790 252.556,193.517 253.125,193.170 253.435 C 192.824 253.744,191.294 254.295,189.770 254.658 C 188.247 255.022,186.640 255.657,186.200 256.068 C 185.760 256.480,184.905 257.186,184.300 257.638 C 183.695 258.089,183.200 258.774,183.200 259.159 C 183.200 260.736,181.468 261.658,178.366 261.731 L 175.450 261.800 174.794 264.400 C 174.433 265.830,173.902 267.439,173.614 267.976 L 173.090 268.952 172.397 268.095 C 172.010 267.617,171.498 265.863,171.240 264.128 C 170.659 260.222,169.200 259.382,169.200 262.953 C 169.200 263.970,167.963 267.580,167.433 268.110 C 167.132 268.411,166.414 269.589,165.836 270.728 C 165.259 271.868,164.638 272.800,164.457 272.800 C 163.014 272.800,162.716 264.285,163.984 259.289 C 164.415 257.590,164.960 254.057,165.195 251.438 C 165.519 247.833,165.904 245.975,166.779 243.788 C 167.416 242.199,168.060 240.022,168.211 238.950 C 168.363 237.877,168.929 236.228,169.470 235.284 C 170.010 234.340,170.728 232.630,171.064 231.484 C 171.400 230.338,171.996 229.040,172.388 228.600 C 172.781 228.160,173.317 227.126,173.581 226.301 C 173.845 225.477,174.677 224.065,175.431 223.163 C 176.184 222.262,176.800 221.338,176.800 221.111 C 176.800 220.194,182.968 213.600,183.825 213.600 C 184.076 213.600,184.893 213.067,185.641 212.416 C 186.388 211.764,187.685 210.639,188.521 209.916 C 190.535 208.174,193.523 205.221,194.403 204.104 C 195.782 202.353,198.608 201.883,199.804 203.205 M136.400 217.192 C 137.198 217.696,137.080 220.698,136.195 222.409 C 135.763 223.245,135.333 225.818,134.980 229.677 C 134.680 232.962,134.213 237.425,133.942 239.594 C 133.524 242.945,133.552 244.550,134.128 250.269 C 134.501 253.971,134.984 259.411,135.201 262.357 C 135.419 265.303,135.790 267.947,136.027 268.233 C 137.293 269.758,138.093 280.803,137.082 282.800 C 136.051 284.839,135.431 284.090,133.815 278.851 C 133.450 277.669,132.813 276.229,132.399 275.651 C 131.972 275.055,131.376 273.001,131.024 270.909 C 130.588 268.315,129.986 266.431,129.002 264.575 C 128.096 262.869,127.586 261.343,127.560 260.267 C 127.502 257.819,126.894 256.048,126.840 258.169 C 126.796 259.877,125.889 261.200,124.762 261.200 C 123.822 261.200,123.686 260.940,122.385 256.652 C 121.776 254.643,120.998 252.280,120.656 251.400 C 119.828 249.265,119.822 243.157,120.647 241.000 C 120.983 240.120,121.698 237.699,122.235 235.620 C 122.772 233.541,123.552 231.471,123.970 231.020 C 124.387 230.569,124.932 229.433,125.181 228.495 C 125.430 227.557,126.128 226.207,126.733 225.495 C 127.337 224.783,128.046 223.705,128.307 223.100 C 128.569 222.495,128.961 222.000,129.179 222.000 C 129.397 222.000,130.204 221.017,130.973 219.815 C 131.997 218.215,132.722 217.529,133.685 217.251 C 135.424 216.750,135.692 216.744,136.400 217.192 M147.810 220.306 C 148.035 220.468,148.665 221.500,149.210 222.600 C 149.754 223.700,150.419 224.741,150.687 224.912 C 150.955 225.084,151.548 226.072,152.006 227.108 C 152.464 228.143,153.172 229.352,153.579 229.795 C 153.986 230.238,154.621 231.500,154.989 232.600 C 155.357 233.700,155.896 234.870,156.187 235.200 C 156.856 235.958,157.824 238.857,158.190 241.200 C 158.345 242.190,158.725 243.771,159.036 244.714 C 159.757 246.906,159.752 248.336,159.011 251.800 C 158.682 253.340,158.051 256.392,157.610 258.582 C 156.506 264.059,155.319 264.969,153.768 261.528 C 153.158 260.177,152.988 260.030,152.755 260.652 C 152.601 261.063,152.266 261.962,152.010 262.648 C 151.162 264.929,146.407 265.927,147.000 263.700 C 147.392 262.227,147.733 249.437,147.424 247.790 C 147.213 246.664,146.992 246.463,145.815 246.326 C 144.012 246.115,144.075 245.779,143.548 258.400 C 143.304 264.230,142.925 269.225,142.704 269.500 C 141.435 271.079,140.448 269.451,139.735 264.600 C 139.443 262.620,138.821 259.740,138.352 258.200 C 136.698 252.774,136.680 243.122,138.315 238.719 C 138.748 237.554,139.334 235.250,139.618 233.600 C 139.901 231.950,140.443 230.150,140.821 229.600 C 141.199 229.050,141.907 227.250,142.393 225.600 C 143.615 221.451,146.066 219.056,147.810 220.306 M178.472 258.200 C 178.457 260.159,178.555 260.742,178.798 260.140 C 178.989 259.666,178.999 258.406,178.820 257.340 C 178.496 255.409,178.494 255.413,178.472 258.200 M215.000 307.600 C 214.602 308.040,214.065 308.400,213.808 308.400 C 212.955 308.400,211.560 310.230,211.846 310.975 C 212.433 312.506,217.200 310.891,217.200 309.161 C 217.200 308.767,217.559 308.194,217.997 307.887 C 218.996 307.187,218.639 306.800,216.995 306.800 C 216.232 306.800,215.435 307.120,215.000 307.600 M105.679 317.538 L 104.357 318.243 104.371 331.417 L 104.386 344.591 105.693 345.065 C 110.408 346.775,111.133 345.919,111.279 338.467 C 111.387 333.004,111.482 332.274,112.153 331.784 C 112.947 331.205,115.200 331.944,115.200 332.783 C 115.200 332.983,115.521 333.248,115.913 333.373 C 116.306 333.497,116.962 334.184,117.371 334.899 C 117.780 335.615,118.544 336.650,119.070 337.200 C 120.588 338.789,123.535 342.330,124.257 343.430 C 125.514 345.349,129.341 346.223,131.000 344.970 C 131.766 344.392,131.806 343.818,131.930 331.541 L 132.060 318.716 131.160 317.758 C 129.924 316.441,127.672 316.446,126.431 317.767 C 125.589 318.663,125.529 319.051,125.606 323.067 C 125.763 331.192,125.624 331.473,122.253 329.877 C 121.014 329.290,120.000 328.549,120.000 328.228 C 120.000 327.908,118.470 325.900,116.600 323.765 C 114.730 321.631,113.200 319.739,113.200 319.561 C 113.200 317.721,107.972 316.315,105.679 317.538 M149.436 318.031 C 148.866 318.708,148.400 319.490,148.400 319.769 C 148.400 320.048,148.058 320.586,147.640 320.964 C 147.221 321.343,146.768 322.243,146.633 322.966 C 146.497 323.688,145.669 325.690,144.793 327.413 C 143.917 329.137,143.200 330.929,143.200 331.396 C 143.200 331.863,142.742 332.865,142.183 333.622 C 141.623 334.380,140.883 335.990,140.537 337.200 C 140.192 338.410,139.586 339.760,139.190 340.200 C 138.134 341.376,137.426 344.309,138.025 345.031 C 139.411 346.700,144.599 345.222,145.159 342.998 C 145.874 340.158,146.480 339.885,152.508 339.692 C 158.913 339.486,159.566 339.694,161.042 342.407 C 162.694 345.442,164.955 346.277,168.372 345.114 C 170.257 344.471,170.225 344.512,169.475 343.683 C 169.115 343.285,168.539 342.159,168.194 341.180 C 167.849 340.201,167.134 338.770,166.604 338.000 C 166.074 337.230,165.467 335.818,165.254 334.862 C 165.042 333.906,164.515 332.736,164.084 332.262 C 163.653 331.788,162.989 330.410,162.608 329.200 C 162.227 327.990,161.507 326.363,161.008 325.585 C 160.509 324.806,159.966 323.546,159.802 322.785 C 158.630 317.349,152.410 314.496,149.436 318.031 M175.169 317.880 C 174.919 318.539,174.890 319.515,175.096 320.380 L 175.434 321.800 178.040 321.664 C 184.599 321.321,185.629 322.483,185.572 330.163 C 185.514 337.970,184.096 340.802,180.246 340.799 C 178.505 340.797,176.009 339.571,175.987 338.706 C 175.980 338.402,175.752 338.494,175.417 338.936 C 175.110 339.341,174.261 339.971,173.530 340.336 C 168.042 343.077,176.854 347.137,184.968 345.606 C 191.013 344.465,191.600 342.904,191.600 327.967 C 191.600 315.657,192.511 316.800,182.701 316.800 L 175.580 316.800 175.169 317.880 M234.600 317.691 L 233.400 318.600 233.506 331.493 L 233.611 344.385 234.786 344.993 C 237.315 346.301,253.411 345.600,255.548 344.089 C 256.084 343.710,257.170 343.040,257.961 342.600 C 258.753 342.160,259.578 341.393,259.796 340.896 C 260.014 340.399,260.506 339.893,260.888 339.772 C 263.422 338.968,263.792 325.970,261.358 323.256 C 260.838 322.675,260.036 321.705,259.577 321.100 C 259.118 320.495,258.495 320.000,258.194 320.000 C 257.892 320.000,257.385 319.628,257.067 319.174 C 255.557 317.019,237.096 315.800,234.600 317.691 M279.819 317.094 C 278.453 317.296,277.752 318.096,277.424 319.829 C 277.295 320.505,276.765 321.634,276.245 322.339 C 275.724 323.045,275.189 324.308,275.055 325.147 C 274.921 325.986,274.329 327.376,273.740 328.236 C 273.151 329.096,272.331 330.874,271.919 332.186 C 271.506 333.498,270.921 334.848,270.619 335.186 C 270.316 335.524,269.666 337.060,269.175 338.600 C 268.684 340.140,268.062 341.531,267.794 341.691 C 266.872 342.239,266.244 344.330,266.800 345.000 C 268.295 346.801,273.504 345.416,274.167 343.043 C 274.963 340.192,275.988 339.800,282.644 339.800 L 288.430 339.800 289.802 341.400 C 290.557 342.280,291.296 343.359,291.445 343.798 C 292.032 345.525,293.992 346.001,297.332 345.225 C 299.440 344.736,299.477 344.621,298.053 343.000 C 297.364 342.214,296.800 341.156,296.800 340.646 C 296.800 340.137,296.189 338.568,295.442 337.160 C 294.695 335.752,293.869 333.790,293.606 332.800 C 293.343 331.810,292.808 330.640,292.417 330.200 C 292.025 329.760,291.387 328.368,290.999 327.106 C 290.612 325.844,289.868 324.234,289.347 323.528 C 288.826 322.822,288.400 321.946,288.400 321.582 C 288.400 317.959,285.221 316.296,279.819 317.094 M208.517 317.928 C 207.457 318.483,207.093 319.058,206.425 321.236 C 205.980 322.686,205.255 324.330,204.815 324.890 C 204.374 325.451,203.742 326.951,203.410 328.225 C 203.079 329.499,202.472 330.914,202.062 331.370 C 201.652 331.827,201.010 333.190,200.635 334.400 C 200.260 335.610,199.643 337.050,199.264 337.600 C 198.884 338.150,198.262 339.615,197.880 340.857 C 197.499 342.098,196.920 343.335,196.593 343.606 C 195.690 344.356,195.862 344.632,197.546 345.137 C 200.168 345.922,203.200 345.288,203.200 343.954 C 203.200 343.585,203.684 342.964,205.661 340.793 L 206.838 339.500 212.603 339.674 C 219.164 339.871,219.571 340.045,220.449 343.020 C 221.042 345.027,221.297 345.176,224.595 345.440 C 228.626 345.763,229.156 344.397,226.552 340.400 C 226.050 339.630,225.466 338.218,225.254 337.262 C 225.041 336.306,224.510 335.136,224.071 334.662 C 223.633 334.188,222.986 332.816,222.633 331.613 C 222.280 330.411,221.544 328.750,220.996 327.922 C 220.448 327.094,220.000 326.240,220.000 326.023 C 220.000 325.104,218.663 321.737,218.006 321.000 C 217.613 320.560,217.159 319.750,216.997 319.200 C 216.463 317.388,216.065 317.199,212.851 317.228 C 210.817 317.247,209.372 317.480,208.517 317.928 M251.402 322.913 C 253.418 323.981,254.647 325.426,255.191 327.367 C 255.476 328.387,255.865 329.317,256.055 329.434 C 256.519 329.721,256.497 333.093,256.029 333.382 C 255.825 333.508,255.443 334.284,255.180 335.106 C 254.659 336.734,253.343 338.400,252.579 338.400 C 252.314 338.400,251.829 338.805,251.500 339.300 C 250.583 340.681,242.496 340.673,241.111 339.290 C 240.196 338.376,239.480 326.927,240.167 324.190 C 240.706 322.044,248.161 321.196,251.402 322.913 M155.565 328.210 C 158.569 332.661,157.716 334.987,153.175 334.731 C 149.862 334.543,148.438 333.617,149.335 332.235 C 149.633 331.776,150.186 330.465,150.563 329.323 C 152.079 324.734,153.070 324.513,155.565 328.210 M214.286 327.162 C 214.789 327.908,215.201 329.077,215.202 329.759 C 215.204 330.442,215.461 331.492,215.775 332.093 C 216.618 333.709,215.127 334.800,212.078 334.800 C 207.531 334.800,206.892 331.113,210.740 327.088 C 212.436 325.314,213.049 325.327,214.286 327.162 M283.920 326.717 C 285.933 328.033,287.098 332.566,285.793 334.007 C 284.766 335.143,280.442 335.151,279.418 334.019 C 278.745 333.276,278.744 333.088,279.397 330.119 C 280.395 325.583,281.228 324.957,283.920 326.717 " stroke="none" fill="#121313" fill-rule="evenodd"></path><path id="path1" d="M195.567 47.765 C 195.475 47.855,192.700 48.126,189.400 48.367 C 181.260 48.960,173.630 49.964,172.389 50.606 C 171.827 50.896,169.586 51.438,167.411 51.808 C 165.235 52.179,162.153 53.004,160.561 53.641 C 158.969 54.278,157.229 54.800,156.693 54.800 C 155.422 54.800,153.257 55.557,152.000 56.441 C 151.450 56.827,149.830 57.455,148.400 57.836 C 146.970 58.217,145.493 58.844,145.118 59.229 C 144.742 59.614,143.842 60.057,143.118 60.214 C 141.992 60.457,139.996 61.375,137.600 62.752 C 137.270 62.941,136.132 63.525,135.072 64.048 C 131.123 65.997,129.244 67.036,128.532 67.664 C 128.129 68.018,126.847 68.787,125.681 69.371 C 124.516 69.955,123.468 70.679,123.352 70.980 C 123.237 71.281,122.750 71.628,122.271 71.751 C 121.792 71.874,120.320 72.788,119.000 73.783 C 117.680 74.778,116.446 75.593,116.258 75.596 C 116.069 75.598,115.580 76.026,115.171 76.546 C 114.762 77.066,113.887 77.715,113.227 77.989 C 112.567 78.262,111.918 78.827,111.786 79.243 C 111.654 79.659,111.386 80.000,111.190 80.000 C 109.784 80.000,91.600 98.002,91.600 99.394 C 91.600 99.697,91.272 100.050,90.871 100.177 C 90.470 100.305,89.739 101.127,89.246 102.004 C 88.753 102.881,88.022 103.774,87.621 103.989 C 87.220 104.203,86.788 104.789,86.661 105.289 C 86.533 105.790,85.857 106.824,85.158 107.587 C 84.459 108.349,83.637 109.572,83.331 110.304 C 83.025 111.036,82.497 111.741,82.157 111.872 C 81.817 112.002,81.102 113.064,80.568 114.232 C 80.034 115.399,79.398 116.478,79.153 116.629 C 78.909 116.780,78.355 117.705,77.921 118.685 C 77.488 119.665,76.828 120.772,76.454 121.146 C 76.081 121.519,75.442 122.719,75.034 123.812 C 74.627 124.905,73.995 126.160,73.630 126.600 C 72.837 127.557,71.600 130.213,71.600 130.960 C 71.600 131.252,71.256 131.929,70.836 132.464 C 70.415 132.998,69.610 134.848,69.046 136.575 C 68.482 138.301,67.775 140.003,67.475 140.357 C 67.175 140.711,66.702 142.080,66.424 143.400 C 66.146 144.720,65.484 146.675,64.953 147.744 C 64.423 148.813,63.723 151.213,63.398 153.076 C 63.073 154.940,62.542 157.035,62.217 157.732 C 61.383 159.527,60.939 161.817,60.223 168.032 C 59.879 171.020,59.293 174.440,58.922 175.632 C 57.808 179.212,57.944 204.426,59.105 209.400 C 59.567 211.380,60.248 215.430,60.618 218.400 C 60.988 221.370,61.640 224.685,62.066 225.767 C 62.492 226.849,63.082 229.112,63.376 230.795 C 63.669 232.478,64.267 234.563,64.704 235.428 C 65.140 236.292,65.829 238.350,66.234 240.000 C 66.639 241.650,67.267 243.450,67.629 244.000 C 67.991 244.550,68.699 246.251,69.203 247.780 C 69.707 249.310,70.417 250.881,70.782 251.273 C 71.146 251.664,71.678 252.893,71.962 254.003 C 72.247 255.114,72.711 256.254,72.994 256.536 C 73.689 257.232,75.200 260.235,75.200 260.922 C 75.200 261.784,76.554 262.800,77.701 262.800 C 79.454 262.800,82.982 263.729,83.320 264.279 C 83.708 264.911,84.800 264.973,84.800 264.363 C 84.800 264.122,84.440 263.831,84.000 263.716 C 83.418 263.564,83.200 263.170,83.200 262.271 C 83.200 261.476,82.629 260.221,81.600 258.754 C 80.720 257.499,80.000 256.242,80.000 255.959 C 80.000 255.676,79.384 254.175,78.630 252.623 C 77.877 251.070,77.059 248.630,76.811 247.200 C 76.564 245.770,76.075 243.711,75.724 242.625 C 74.508 238.860,74.819 236.603,76.786 234.919 C 78.438 233.505,82.939 231.605,84.645 231.602 C 85.475 231.600,85.487 231.495,85.292 226.068 C 84.970 217.124,87.105 214.479,91.595 218.257 C 93.065 219.494,96.649 219.491,95.657 218.253 C 94.507 216.819,93.227 206.918,93.219 199.400 C 93.209 189.589,94.786 182.494,97.681 179.335 L 98.473 178.471 100.535 179.426 C 101.669 179.951,102.778 180.617,102.999 180.905 C 103.219 181.194,104.030 181.869,104.800 182.405 C 105.570 182.942,107.100 184.243,108.200 185.297 C 111.784 188.729,112.449 187.022,110.194 180.182 C 107.746 172.753,107.425 157.378,109.594 151.396 C 110.072 150.078,110.794 147.881,111.199 146.514 C 112.149 143.309,112.171 143.279,113.859 142.963 C 115.330 142.687,118.000 143.592,118.000 144.367 C 118.000 144.575,118.315 144.847,118.700 144.969 C 119.085 145.092,120.384 146.000,121.587 146.988 L 123.774 148.783 124.797 147.803 C 125.360 147.264,126.266 146.755,126.810 146.672 L 127.800 146.522 128.056 135.161 C 128.312 123.767,128.575 121.450,129.998 118.038 C 130.419 117.027,131.053 115.172,131.406 113.915 C 132.053 111.613,133.445 109.957,135.204 109.399 C 136.061 109.127,138.402 110.913,140.578 113.500 C 141.688 114.821,143.200 115.252,143.200 114.249 C 143.200 113.946,143.461 113.482,143.779 113.217 C 144.097 112.953,144.672 111.896,145.056 110.868 C 145.440 109.841,146.157 108.460,146.649 107.800 C 147.141 107.139,147.909 105.744,148.357 104.700 C 148.805 103.655,149.333 102.800,149.530 102.800 C 149.727 102.800,150.319 101.990,150.844 101.000 C 151.369 100.010,151.932 99.200,152.094 99.200 C 152.257 99.200,152.817 98.525,153.339 97.700 C 154.295 96.188,155.825 94.323,158.400 91.533 C 161.399 88.283,165.203 84.802,165.765 84.793 C 166.004 84.789,166.633 84.330,167.162 83.773 C 167.690 83.215,168.752 82.497,169.521 82.175 C 170.289 81.854,171.116 81.333,171.359 81.018 C 171.602 80.702,172.790 80.060,174.000 79.590 C 175.210 79.121,176.740 78.405,177.400 77.998 C 178.068 77.587,180.463 76.974,182.800 76.615 C 185.110 76.261,187.924 75.789,189.053 75.567 C 190.605 75.262,192.046 75.315,194.949 75.782 C 200.100 76.611,201.523 76.563,203.406 75.500 C 205.476 74.331,215.511 74.135,217.218 75.230 C 218.155 75.832,220.309 76.486,223.081 77.012 C 223.786 77.146,224.813 77.610,225.364 78.043 C 225.915 78.477,227.409 79.188,228.683 79.623 C 229.957 80.058,231.181 80.655,231.401 80.949 C 231.622 81.243,232.555 81.867,233.474 82.336 C 234.394 82.805,235.260 83.374,235.400 83.600 C 235.540 83.826,236.357 84.370,237.217 84.808 C 238.076 85.247,239.408 86.234,240.176 87.003 C 240.945 87.771,241.766 88.400,242.002 88.400 C 242.553 88.400,250.000 95.834,250.000 96.385 C 250.000 96.613,250.265 96.800,250.590 96.800 C 250.914 96.800,251.436 97.295,251.749 97.901 C 252.062 98.506,252.716 99.361,253.202 99.801 C 253.688 100.240,254.413 101.242,254.813 102.027 C 255.214 102.811,255.849 103.709,256.225 104.021 C 256.602 104.333,257.257 105.401,257.682 106.394 C 258.106 107.387,258.786 108.560,259.192 109.000 C 259.598 109.440,259.991 110.248,260.065 110.796 C 260.270 112.309,261.149 112.190,264.110 110.244 C 269.669 106.593,272.292 107.567,274.766 114.200 C 275.258 115.520,275.899 116.870,276.189 117.200 C 276.480 117.530,277.103 119.240,277.574 121.000 C 278.045 122.760,278.711 124.708,279.055 125.329 C 279.944 126.936,281.577 138.645,281.590 143.500 C 281.601 147.867,281.844 148.305,283.200 146.400 C 285.190 143.605,287.859 146.413,289.187 152.701 C 289.686 155.065,290.433 157.952,290.847 159.115 C 291.261 160.278,291.600 161.853,291.600 162.615 C 291.600 164.319,292.374 164.438,293.917 162.972 C 297.306 159.755,299.213 159.705,300.410 162.800 C 300.707 163.570,301.337 164.830,301.808 165.600 C 302.280 166.370,302.956 168.080,303.310 169.400 C 303.665 170.720,304.320 172.790,304.765 174.000 C 305.210 175.210,305.580 176.650,305.588 177.200 C 305.596 177.750,306.007 178.816,306.501 179.568 C 306.996 180.320,307.622 181.310,307.894 181.768 C 308.580 182.922,308.522 186.992,307.783 189.613 C 305.156 198.934,305.209 198.338,306.905 199.445 C 307.821 200.044,308.481 201.009,309.161 202.747 C 309.689 204.098,310.363 205.403,310.658 205.648 C 310.953 205.893,311.390 206.837,311.630 207.747 C 311.870 208.656,312.672 210.753,313.413 212.407 C 314.328 214.448,314.917 216.588,315.248 219.071 L 315.734 222.728 317.167 222.503 C 317.955 222.379,319.230 222.059,320.000 221.792 C 321.827 221.159,322.934 221.605,323.657 223.264 C 324.620 225.471,323.436 247.702,322.199 250.665 C 321.078 253.348,321.466 254.418,323.762 254.968 C 324.401 255.121,325.925 256.138,327.148 257.229 L 329.372 259.211 329.924 258.157 C 330.228 257.577,330.821 256.102,331.242 254.879 C 331.662 253.656,332.239 252.373,332.523 252.028 C 332.808 251.683,333.445 250.099,333.941 248.508 C 334.436 246.918,335.069 245.388,335.347 245.108 C 335.982 244.471,336.800 242.163,336.800 241.008 C 336.800 240.528,337.252 239.250,337.805 238.168 C 338.358 237.086,339.179 234.400,339.630 232.200 C 340.080 230.000,340.692 227.825,340.990 227.366 C 341.288 226.908,341.918 223.938,342.391 220.766 C 342.863 217.595,343.644 213.470,344.125 211.600 C 345.165 207.560,345.475 177.042,344.509 173.800 C 343.731 171.187,343.269 168.896,342.393 163.303 C 341.937 160.389,341.216 157.239,340.790 156.303 C 340.365 155.366,340.014 154.143,340.009 153.584 C 339.995 151.964,338.850 147.972,337.782 145.821 C 337.242 144.733,336.800 143.357,336.800 142.762 C 336.800 142.168,336.269 140.671,335.619 139.436 C 334.970 138.201,334.126 136.158,333.744 134.896 C 333.362 133.633,332.754 132.240,332.392 131.800 C 332.030 131.360,331.404 130.100,331.002 129.000 C 330.600 127.900,329.881 126.460,329.404 125.800 C 328.928 125.140,328.300 123.841,328.009 122.914 C 327.719 121.987,327.067 120.839,326.561 120.364 C 326.055 119.888,325.531 118.996,325.396 118.381 C 325.261 117.766,324.705 116.782,324.160 116.194 C 323.615 115.606,322.796 114.332,322.340 113.363 C 321.885 112.393,321.369 111.600,321.194 111.600 C 321.019 111.600,320.341 110.655,319.687 109.500 C 319.033 108.345,318.116 107.057,317.649 106.638 C 317.182 106.219,316.800 105.649,316.800 105.371 C 316.800 105.093,316.091 104.128,315.225 103.226 C 314.358 102.324,313.536 101.229,313.398 100.793 C 313.259 100.357,312.883 100.000,312.560 100.000 C 312.238 100.000,311.860 99.685,311.720 99.300 C 311.249 98.010,300.233 86.456,296.560 83.400 C 294.783 81.922,292.561 80.010,291.330 78.900 C 290.537 78.185,289.739 77.600,289.557 77.600 C 289.375 77.600,288.597 76.970,287.827 76.200 C 287.057 75.430,286.235 74.800,286.002 74.800 C 285.768 74.800,284.666 74.080,283.552 73.200 C 282.439 72.320,281.285 71.600,280.987 71.600 C 280.689 71.600,280.210 71.265,279.923 70.856 C 279.635 70.447,278.468 69.641,277.328 69.064 C 276.189 68.487,275.146 67.837,275.012 67.619 C 274.877 67.401,274.009 66.885,273.083 66.473 C 272.158 66.061,270.693 65.241,269.829 64.652 C 268.965 64.062,267.795 63.474,267.229 63.344 C 266.663 63.214,265.567 62.683,264.794 62.165 C 264.021 61.646,262.323 60.855,261.022 60.408 C 259.721 59.960,258.373 59.346,258.028 59.043 C 257.683 58.741,256.336 58.189,255.035 57.817 C 253.735 57.445,251.837 56.704,250.819 56.172 C 249.801 55.639,247.943 55.014,246.691 54.783 C 245.438 54.551,243.466 53.935,242.307 53.413 C 241.148 52.892,238.401 52.164,236.203 51.797 C 234.005 51.430,231.638 50.892,230.943 50.602 C 229.356 49.939,225.662 49.385,219.000 48.813 C 216.140 48.567,212.039 48.194,209.886 47.983 C 206.001 47.603,195.886 47.449,195.567 47.765 M319.276 58.263 C 318.767 58.372,318.250 58.725,318.127 59.046 C 318.004 59.367,317.371 59.905,316.720 60.241 C 313.210 62.057,313.114 71.895,316.589 73.801 C 317.255 74.166,318.610 74.912,319.600 75.459 C 321.951 76.757,324.311 76.595,326.756 74.968 C 327.721 74.326,328.830 73.629,329.219 73.421 C 332.087 71.885,332.276 62.165,329.467 60.759 C 328.990 60.520,328.208 59.860,327.729 59.292 C 326.847 58.246,322.059 57.663,319.276 58.263 M252.288 65.568 C 256.734 66.843,259.555 72.654,257.580 76.467 C 256.851 77.874,254.058 80.376,252.965 80.601 C 252.434 80.710,251.574 80.887,251.054 80.994 C 244.227 82.395,239.868 72.793,245.039 67.745 C 247.486 65.356,249.471 64.760,252.288 65.568 M383.209 71.880 C 382.439 72.858,382.430 72.970,383.056 73.662 C 384.353 75.095,386.548 73.666,385.536 72.046 C 384.745 70.779,384.110 70.734,383.209 71.880 M351.330 100.687 C 348.016 101.102,348.449 106.000,351.800 106.000 C 353.181 106.000,354.400 104.982,354.400 103.829 C 354.400 102.968,353.209 100.375,352.854 100.464 C 352.714 100.499,352.028 100.600,351.330 100.687 M310.432 124.662 C 315.479 125.802,318.421 129.608,318.382 134.950 C 318.323 143.297,309.450 148.756,302.946 144.447 C 301.910 143.761,300.918 143.200,300.742 143.200 C 300.565 143.200,300.163 142.705,299.848 142.100 C 299.533 141.495,298.828 140.482,298.282 139.850 C 295.755 136.925,296.389 132.184,299.898 127.766 C 301.628 125.589,302.962 124.914,307.251 124.051 C 307.389 124.023,308.820 124.298,310.432 124.662 M353.632 144.506 C 351.331 145.680,351.725 148.651,354.306 149.584 C 356.723 150.458,358.163 148.244,356.995 145.449 C 356.334 143.868,355.397 143.605,353.632 144.506 " stroke="none" fill="#40b58e" fill-rule="evenodd"></path><path id="path2" d="M0.000 200.000 L 0.000 400.000 200.000 400.000 L 400.000 400.000 400.000 200.000 L 400.000 0.000 200.000 0.000 L 0.000 0.000 0.000 200.000 M212.200 45.985 C 214.620 46.189,218.439 46.722,220.686 47.170 C 222.934 47.617,226.534 48.150,228.686 48.354 C 230.839 48.559,233.501 49.082,234.602 49.519 C 235.704 49.955,238.492 50.702,240.798 51.180 C 243.104 51.658,245.263 52.278,245.596 52.557 C 245.928 52.836,247.703 53.456,249.541 53.935 C 251.378 54.414,253.324 55.154,253.865 55.580 C 254.406 56.005,255.817 56.554,257.000 56.800 C 258.183 57.046,259.614 57.610,260.179 58.055 C 260.743 58.499,262.228 59.222,263.478 59.661 C 264.727 60.100,266.153 60.777,266.645 61.164 C 267.138 61.552,268.409 62.198,269.471 62.601 C 270.532 63.004,271.625 63.649,271.900 64.035 C 272.176 64.421,272.896 64.850,273.500 64.988 C 274.105 65.126,275.320 65.769,276.200 66.418 C 277.080 67.066,278.367 67.863,279.060 68.187 C 279.753 68.512,280.563 69.014,280.860 69.304 C 281.157 69.593,282.120 70.267,283.000 70.802 C 284.705 71.838,287.432 73.799,289.400 75.405 C 291.856 77.409,293.443 78.657,294.986 79.799 C 298.259 82.220,314.622 99.138,315.253 100.753 C 315.392 101.109,315.905 101.760,316.394 102.199 C 316.882 102.639,317.558 103.539,317.895 104.199 C 318.232 104.860,318.736 105.534,319.015 105.698 C 319.294 105.862,320.018 106.852,320.625 107.898 C 321.232 108.944,321.946 109.931,322.212 110.091 C 322.478 110.250,322.927 110.970,323.211 111.691 C 323.495 112.411,324.139 113.450,324.642 114.000 C 325.145 114.550,325.932 115.848,326.390 116.883 C 326.848 117.919,327.418 118.887,327.656 119.035 C 327.894 119.182,328.534 120.314,329.078 121.551 C 329.622 122.788,330.392 124.160,330.790 124.600 C 331.188 125.040,331.636 125.979,331.786 126.687 C 331.935 127.394,332.524 128.654,333.095 129.487 C 333.665 130.319,334.469 132.074,334.881 133.386 C 335.294 134.698,335.878 136.048,336.179 136.386 C 336.480 136.724,337.124 138.350,337.611 140.000 C 338.097 141.650,338.772 143.441,339.109 143.979 C 339.446 144.518,340.060 146.474,340.473 148.327 C 340.885 150.179,341.585 152.490,342.028 153.461 C 342.470 154.432,343.021 156.796,343.252 158.714 C 343.484 160.631,343.998 163.190,344.395 164.400 C 347.634 174.272,347.637 209.788,344.399 219.600 C 343.999 220.810,343.487 223.330,343.261 225.200 C 343.034 227.070,342.471 229.452,342.008 230.494 C 341.546 231.536,340.830 233.936,340.416 235.827 C 340.003 237.718,339.411 239.566,339.100 239.933 C 338.789 240.300,338.129 242.040,337.632 243.800 C 337.136 245.560,336.463 247.298,336.137 247.663 C 335.810 248.027,335.273 249.377,334.943 250.663 C 334.613 251.948,333.920 253.630,333.404 254.400 C 332.888 255.170,332.238 256.610,331.960 257.600 C 331.682 258.590,331.163 259.850,330.806 260.400 C 330.450 260.950,329.843 262.437,329.457 263.705 C 329.001 265.204,328.414 266.235,327.778 266.651 C 327.240 267.004,326.799 267.676,326.799 268.146 C 326.797 269.169,325.384 271.600,324.792 271.600 C 324.561 271.600,324.031 272.394,323.616 273.363 C 323.200 274.333,322.611 275.278,322.306 275.463 C 322.002 275.649,321.517 276.385,321.228 277.100 C 320.939 277.815,320.566 278.400,320.398 278.400 C 320.230 278.400,320.004 278.740,319.896 279.156 C 319.399 281.055,313.295 280.896,311.121 278.928 C 310.364 278.243,308.665 278.188,282.184 278.000 L 254.052 277.800 252.926 276.746 C 252.307 276.166,251.217 275.397,250.504 275.037 C 249.791 274.678,248.927 273.955,248.584 273.432 C 248.241 272.909,247.439 272.264,246.800 272.000 C 246.161 271.736,245.356 271.087,245.010 270.560 C 244.664 270.032,244.122 269.600,243.805 269.600 C 243.487 269.600,242.637 269.085,241.914 268.455 C 241.191 267.826,240.060 267.034,239.400 266.696 C 238.740 266.357,237.707 265.526,237.105 264.849 C 236.502 264.172,235.580 263.510,235.056 263.378 C 234.532 263.247,233.878 262.720,233.604 262.208 C 232.471 260.090,226.202 260.086,223.659 262.202 C 223.077 262.687,221.610 263.316,220.400 263.600 C 219.190 263.884,217.699 264.533,217.088 265.043 C 215.940 265.998,213.679 266.794,212.100 266.798 C 211.605 266.799,210.833 267.167,210.384 267.616 C 209.415 268.585,208.090 269.126,205.469 269.624 C 204.407 269.826,203.102 270.334,202.570 270.752 C 202.038 271.171,200.297 271.828,198.701 272.212 C 197.106 272.597,195.486 273.238,195.103 273.636 C 194.434 274.331,192.059 275.193,190.800 275.198 C 190.470 275.199,189.697 275.830,189.083 276.600 C 188.469 277.370,187.781 278.000,187.556 278.000 C 187.331 278.000,186.550 278.585,185.821 279.300 C 183.789 281.293,182.335 282.533,180.800 283.579 C 180.030 284.104,178.915 285.043,178.323 285.667 C 177.730 286.290,176.904 286.800,176.487 286.800 C 176.064 286.800,175.525 287.247,175.269 287.808 C 174.063 290.455,160.407 290.437,157.255 287.785 C 156.611 287.243,155.717 286.800,155.268 286.800 C 153.977 286.800,152.292 286.037,151.126 284.924 L 150.051 283.900 149.161 285.850 C 148.671 286.922,147.963 288.160,147.587 288.600 C 147.207 289.045,146.786 290.461,146.637 291.793 C 146.472 293.282,145.943 294.945,145.239 296.193 C 144.607 297.314,143.876 299.496,143.583 301.136 C 142.974 304.550,142.132 305.815,140.098 306.377 C 138.489 306.821,136.800 306.119,136.800 305.006 C 136.800 304.690,136.125 303.735,135.300 302.884 C 133.054 300.567,131.070 298.077,130.430 296.772 C 130.116 296.132,129.531 295.505,129.131 295.378 C 128.730 295.251,128.290 294.702,128.154 294.158 C 128.017 293.614,127.314 292.718,126.592 292.166 C 125.869 291.615,125.170 290.734,125.038 290.209 C 124.906 289.683,124.437 289.139,123.995 288.998 C 123.553 288.858,122.941 288.261,122.636 287.672 C 122.331 287.082,121.478 285.970,120.742 285.200 L 119.404 283.800 111.202 283.675 C 102.136 283.537,97.959 283.932,95.101 285.196 C 91.794 286.659,86.238 283.444,85.036 279.372 C 84.902 278.917,84.254 278.147,83.596 277.660 C 82.938 277.174,82.400 276.518,82.400 276.202 C 82.400 275.886,81.859 275.012,81.199 274.260 C 80.538 273.507,79.719 272.224,79.378 271.409 C 79.037 270.593,78.350 269.537,77.850 269.063 C 77.350 268.588,76.706 267.492,76.419 266.627 C 76.131 265.762,75.564 264.699,75.159 264.264 C 74.754 263.829,74.140 262.623,73.795 261.583 C 73.449 260.544,72.814 259.375,72.383 258.985 C 71.953 258.595,71.600 257.957,71.600 257.567 C 71.600 257.177,70.953 255.630,70.162 254.129 C 69.371 252.628,68.451 250.500,68.117 249.400 C 67.784 248.300,67.200 246.950,66.820 246.400 C 65.946 245.134,65.635 244.276,65.177 241.868 C 64.974 240.805,64.462 239.449,64.038 238.854 C 63.614 238.259,62.987 236.428,62.643 234.786 C 61.843 230.961,61.336 229.246,60.824 228.629 C 60.599 228.358,60.134 226.081,59.791 223.568 C 59.448 221.056,58.812 217.687,58.380 216.082 C 56.298 208.365,56.123 176.103,58.124 168.800 C 58.696 166.710,59.431 162.961,59.757 160.468 C 60.083 157.976,60.609 155.541,60.925 155.058 C 61.242 154.575,61.902 152.384,62.393 150.190 C 62.884 147.995,63.630 145.706,64.052 145.103 C 64.474 144.500,64.983 143.150,65.182 142.103 C 65.645 139.675,65.948 138.863,66.909 137.476 C 67.338 136.858,67.944 135.373,68.257 134.175 C 68.570 132.978,69.258 131.361,69.786 130.582 C 70.314 129.804,71.047 128.262,71.415 127.155 C 71.783 126.048,72.335 125.047,72.642 124.929 C 72.949 124.811,73.200 124.458,73.200 124.144 C 73.200 123.338,75.142 119.600,75.560 119.600 C 75.751 119.600,76.306 118.617,76.794 117.416 C 77.281 116.214,77.946 115.011,78.271 114.741 C 78.596 114.471,79.301 113.384,79.838 112.325 C 80.374 111.266,80.950 110.400,81.116 110.400 C 81.282 110.400,81.774 109.735,82.209 108.923 C 82.644 108.110,83.578 106.715,84.284 105.823 C 84.991 104.930,86.161 103.433,86.884 102.495 C 92.984 94.588,100.792 86.288,106.615 81.520 C 108.147 80.266,109.940 78.691,110.600 78.020 C 111.260 77.349,111.957 76.800,112.147 76.800 C 112.338 76.800,113.074 76.305,113.783 75.700 C 114.492 75.095,116.374 73.700,117.965 72.600 C 119.556 71.500,121.454 70.105,122.182 69.500 C 122.910 68.895,123.721 68.400,123.984 68.400 C 124.246 68.400,125.467 67.680,126.696 66.800 C 127.925 65.920,129.157 65.200,129.434 65.200 C 129.712 65.200,130.447 64.783,131.069 64.274 C 131.691 63.765,133.169 62.940,134.353 62.440 C 135.538 61.941,136.876 61.187,137.329 60.766 C 137.781 60.345,138.468 60.000,138.856 60.000 C 139.244 60.000,140.929 59.280,142.600 58.400 C 144.271 57.520,145.967 56.800,146.370 56.800 C 147.273 56.800,149.864 55.743,150.168 55.251 C 150.291 55.052,151.879 54.492,153.696 54.006 C 155.513 53.520,157.540 52.801,158.200 52.408 C 158.860 52.016,160.266 51.570,161.324 51.419 C 163.979 51.039,167.539 50.098,169.132 49.354 C 169.864 49.012,172.294 48.562,174.532 48.354 C 176.769 48.146,180.580 47.597,183.000 47.133 C 190.654 45.665,202.779 45.189,212.200 45.985 M326.258 56.802 C 327.234 57.028,328.492 57.745,329.317 58.546 C 330.087 59.294,330.878 59.972,331.074 60.053 C 331.615 60.276,333.212 64.390,333.461 66.202 C 333.790 68.589,331.856 73.364,330.000 74.750 C 329.230 75.325,328.460 76.014,328.289 76.282 C 327.539 77.455,321.291 78.071,318.996 77.198 C 313.959 75.283,309.828 66.833,312.327 63.554 C 312.727 63.029,313.288 62.060,313.573 61.400 C 315.260 57.505,320.724 55.525,326.258 56.802 M247.708 67.962 C 243.651 70.916,243.025 74.033,245.928 76.824 C 249.178 79.946,252.301 80.386,254.025 77.965 C 254.481 77.324,255.105 76.800,255.411 76.800 C 256.929 76.800,257.103 71.454,255.630 70.078 C 252.928 67.554,252.253 67.104,250.895 66.926 C 249.676 66.766,249.088 66.957,247.708 67.962 M385.408 69.513 C 387.127 70.974,387.963 72.959,387.236 73.857 C 385.280 76.272,383.159 76.269,381.137 73.850 C 380.158 72.679,380.177 72.618,382.144 70.594 C 384.086 68.595,384.260 68.538,385.408 69.513 M207.600 76.657 C 206.830 76.744,204.995 77.099,203.522 77.445 C 201.237 77.983,200.210 78.007,196.522 77.607 C 190.304 76.932,181.909 77.655,179.784 79.047 C 179.318 79.353,178.036 79.870,176.935 80.197 C 175.834 80.524,174.138 81.330,173.167 81.988 C 172.195 82.647,171.196 83.189,170.946 83.193 C 170.696 83.197,169.508 84.010,168.305 85.000 C 167.103 85.990,166.017 86.800,165.892 86.800 C 165.688 86.800,163.845 88.432,161.260 90.902 C 160.743 91.396,159.478 92.790,158.448 94.000 C 157.418 95.210,156.086 96.721,155.488 97.358 C 154.889 97.996,154.400 98.754,154.400 99.044 C 154.400 99.334,154.075 99.746,153.678 99.958 C 153.281 100.171,152.608 101.032,152.182 101.872 C 151.757 102.713,151.105 103.760,150.734 104.200 C 150.363 104.640,149.599 105.921,149.036 107.046 C 148.473 108.171,147.739 109.318,147.406 109.595 C 147.073 109.872,146.800 110.353,146.800 110.665 C 146.800 111.311,145.356 114.300,144.609 115.200 C 144.335 115.530,143.887 117.510,143.613 119.600 C 143.328 121.768,142.716 124.259,142.187 125.400 C 141.144 127.651,140.470 135.225,141.120 137.400 C 141.465 138.557,141.497 138.515,142.020 136.221 C 142.353 134.760,142.994 133.351,143.682 132.568 C 144.298 131.866,144.913 130.687,145.049 129.946 C 145.186 129.206,145.530 128.225,145.814 127.767 C 146.140 127.241,146.198 126.726,145.971 126.367 C 145.366 125.410,145.559 123.459,146.405 121.994 C 146.847 121.227,147.562 119.831,147.994 118.892 C 148.426 117.952,149.054 117.078,149.390 116.949 C 149.726 116.820,150.334 115.969,150.742 115.057 C 151.150 114.146,151.870 113.057,152.342 112.638 C 152.814 112.219,153.200 111.634,153.200 111.338 C 153.200 111.042,153.927 110.073,154.816 109.184 C 155.705 108.295,156.601 107.123,156.808 106.579 C 157.015 106.035,157.599 105.401,158.105 105.170 C 158.612 104.940,159.266 104.209,159.559 103.548 C 159.852 102.887,160.500 102.190,161.000 102.000 C 161.500 101.810,162.372 101.192,162.937 100.627 C 165.545 98.018,167.772 102.347,165.227 105.079 C 164.115 106.272,163.730 107.224,163.442 109.486 C 163.296 110.633,162.718 112.456,162.157 113.536 C 160.524 116.685,160.531 122.647,162.170 124.364 C 163.336 125.586,163.340 125.610,163.651 132.290 C 164.005 139.916,164.176 141.199,165.222 144.061 C 165.872 145.840,166.237 147.872,166.984 153.877 C 167.071 154.580,167.526 155.673,167.995 156.307 C 168.570 157.086,169.048 158.750,169.466 161.430 C 169.806 163.614,170.415 165.944,170.819 166.609 C 171.964 168.495,172.418 172.260,172.673 182.000 L 172.909 191.000 174.093 192.005 C 175.234 192.973,175.286 193.168,175.538 197.405 L 175.800 201.800 176.098 196.800 C 177.117 179.700,176.802 169.450,175.187 167.182 C 174.381 166.050,173.200 161.048,173.200 158.765 C 173.200 158.124,173.063 157.600,172.896 157.600 C 172.179 157.600,171.472 155.603,170.758 151.561 C 170.302 148.975,169.634 146.626,169.097 145.718 C 168.205 144.208,168.200 144.111,168.200 126.800 L 168.200 109.400 169.120 108.110 C 169.678 107.328,170.283 105.517,170.656 103.510 C 171.080 101.233,171.558 99.888,172.188 99.200 C 172.691 98.650,173.227 97.504,173.379 96.652 C 173.551 95.685,174.169 94.574,175.027 93.691 C 175.782 92.913,176.400 92.123,176.400 91.935 C 176.400 91.747,176.895 91.054,177.500 90.396 C 178.105 89.737,178.801 88.974,179.046 88.699 C 180.648 86.907,183.351 84.800,184.048 84.800 C 184.533 84.800,184.960 84.476,185.080 84.017 C 185.623 81.940,194.279 80.919,197.100 82.599 C 198.341 83.337,198.400 83.484,198.400 85.819 C 198.400 88.561,198.210 88.762,194.800 89.619 C 193.810 89.868,192.640 90.396,192.200 90.792 C 191.760 91.188,190.447 91.989,189.281 92.572 C 188.116 93.155,187.068 93.879,186.952 94.180 C 186.837 94.481,186.222 94.942,185.586 95.206 C 184.949 95.469,184.068 96.296,183.628 97.043 C 183.187 97.789,182.581 98.400,182.281 98.400 C 181.808 98.400,180.617 101.150,180.947 101.480 C 181.013 101.546,183.482 101.651,186.434 101.712 C 192.592 101.839,193.887 102.282,195.198 104.708 C 195.641 105.529,196.396 106.693,196.876 107.295 C 198.455 109.276,198.386 117.600,196.790 117.600 C 196.376 117.600,195.624 117.765,195.119 117.966 C 192.304 119.087,188.041 120.009,183.800 120.415 C 178.215 120.950,177.139 121.282,175.792 122.883 C 174.537 124.374,174.542 124.800,175.813 124.800 C 179.508 124.800,180.248 126.092,180.801 133.516 C 181.140 138.062,181.380 139.331,182.205 140.937 C 182.752 142.002,183.200 143.136,183.200 143.457 C 183.200 145.048,184.408 146.400,185.828 146.400 C 187.803 146.400,189.066 147.766,189.390 150.250 C 189.868 153.926,189.855 153.902,191.593 154.068 C 192.473 154.152,193.599 154.043,194.096 153.826 C 195.368 153.270,207.535 153.336,208.875 153.905 C 211.148 154.870,213.087 153.438,213.289 150.645 C 213.498 147.756,215.049 146.000,217.391 146.000 C 218.914 146.000,219.208 145.389,219.794 141.000 C 219.941 139.900,220.396 138.425,220.805 137.722 C 221.244 136.966,221.646 135.250,221.788 133.522 C 222.466 125.276,222.697 124.800,226.016 124.800 C 228.422 124.800,228.441 124.684,226.342 122.746 C 224.703 121.233,224.624 121.209,219.442 120.598 C 213.609 119.910,210.000 119.218,210.000 118.788 C 210.000 118.631,209.100 118.384,208.000 118.238 C 205.184 117.864,204.721 117.032,204.743 112.379 C 204.763 108.276,205.252 106.341,206.531 105.306 C 207.011 104.918,207.713 104.119,208.091 103.531 C 209.011 102.100,211.927 101.511,217.512 101.629 C 221.981 101.723,222.648 101.410,220.773 100.096 C 220.348 99.798,220.000 99.307,220.000 99.004 C 220.000 98.125,213.749 92.662,211.947 91.966 C 211.044 91.617,210.148 91.051,209.956 90.707 C 209.763 90.363,208.659 89.859,207.503 89.587 C 203.714 88.696,203.200 88.267,203.200 85.995 C 203.200 81.611,211.536 80.010,216.000 83.538 C 216.770 84.146,217.961 84.871,218.647 85.148 C 219.332 85.426,220.121 86.079,220.400 86.600 C 220.679 87.121,221.417 87.758,222.040 88.017 C 222.663 88.275,223.276 88.811,223.402 89.208 C 223.528 89.604,224.254 90.404,225.016 90.985 C 225.777 91.566,226.400 92.310,226.400 92.639 C 226.400 92.967,226.849 93.686,227.398 94.235 C 228.537 95.373,229.363 96.880,229.765 98.553 C 229.917 99.187,230.400 99.997,230.839 100.353 C 231.415 100.820,231.807 101.999,232.253 104.600 C 232.592 106.580,233.224 108.778,233.658 109.484 C 234.836 111.404,235.184 116.176,235.199 130.600 C 235.207 138.160,235.371 143.646,235.600 144.000 C 235.813 144.330,236.003 144.510,236.022 144.400 C 236.041 144.290,236.283 139.970,236.560 134.800 C 237.259 121.739,238.462 119.190,240.460 126.540 C 240.922 128.241,241.394 129.539,241.509 129.425 C 242.681 128.252,242.140 117.124,240.822 115.279 C 240.397 114.686,239.755 112.580,239.394 110.600 C 238.964 108.247,238.477 106.759,237.988 106.303 C 237.252 105.617,236.407 103.272,236.402 101.903 C 236.401 101.520,235.866 100.730,235.213 100.149 C 233.939 99.013,233.402 97.674,233.053 94.762 L 232.832 92.925 234.916 93.247 C 236.521 93.495,237.237 93.849,238.029 94.784 C 238.595 95.453,239.281 96.000,239.553 96.000 C 239.825 96.000,241.000 96.900,242.163 98.000 C 243.326 99.100,244.377 100.000,244.499 100.000 C 244.746 100.000,247.418 102.727,250.183 105.800 C 251.172 106.900,252.255 108.365,252.589 109.056 C 252.923 109.748,253.461 110.415,253.785 110.539 C 254.110 110.663,254.649 111.421,254.983 112.222 C 255.318 113.023,256.027 114.021,256.559 114.439 C 257.146 114.901,257.732 116.002,258.050 117.243 C 258.421 118.694,258.827 119.382,259.450 119.619 C 260.342 119.958,260.538 120.519,261.040 124.168 C 261.287 125.957,261.361 126.068,261.859 125.387 C 262.167 124.966,262.325 124.106,262.221 123.419 C 262.119 122.749,261.929 121.364,261.799 120.342 C 261.628 118.995,261.361 118.431,260.825 118.291 C 260.125 118.108,259.200 115.234,259.200 113.241 C 259.200 112.844,258.663 111.728,258.007 110.760 C 257.351 109.792,256.811 108.623,256.807 108.162 C 256.803 107.701,256.434 106.993,255.987 106.589 C 255.540 106.184,254.651 104.937,254.010 103.818 C 253.370 102.698,252.385 101.350,251.823 100.821 C 251.260 100.293,250.800 99.680,250.800 99.459 C 250.800 99.238,250.215 98.470,249.500 97.752 C 248.785 97.035,247.907 96.144,247.550 95.774 C 246.689 94.882,245.459 93.653,244.623 92.850 C 241.917 90.252,241.231 89.672,239.900 88.855 C 239.075 88.349,238.400 87.765,238.400 87.557 C 238.400 87.350,237.989 87.024,237.487 86.833 C 236.985 86.642,235.749 85.856,234.741 85.087 C 233.734 84.318,232.492 83.556,231.982 83.394 C 231.472 83.233,230.340 82.582,229.466 81.949 C 228.592 81.316,227.139 80.607,226.238 80.374 C 225.337 80.142,224.121 79.609,223.537 79.191 C 221.646 77.839,211.460 76.219,207.600 76.657 M354.159 99.654 C 354.728 99.913,355.424 100.777,355.778 101.662 C 357.493 105.947,352.782 110.050,349.359 107.254 C 344.934 103.640,348.951 97.281,354.159 99.654 M203.450 117.820 C 203.818 118.382,204.629 119.105,205.254 119.428 C 205.878 119.750,206.495 120.437,206.624 120.954 C 206.754 121.471,207.387 122.283,208.030 122.759 C 209.554 123.886,209.756 127.373,208.370 128.627 C 206.678 130.158,195.574 129.974,193.990 128.390 C 192.526 126.926,193.287 122.414,195.096 121.829 C 195.483 121.704,196.025 121.151,196.300 120.601 C 196.575 120.050,197.025 119.151,197.300 118.603 C 197.575 118.055,198.104 117.605,198.476 117.603 C 198.848 117.601,199.264 117.420,199.400 117.200 C 199.944 116.321,202.749 116.750,203.450 117.820 M304.200 126.563 C 302.628 127.260,300.002 129.853,299.991 130.719 C 299.986 131.094,299.630 131.850,299.200 132.400 C 297.668 134.359,299.773 140.841,302.378 142.189 C 307.574 144.876,311.852 144.278,315.058 140.418 C 317.771 137.152,317.630 131.720,314.771 129.314 C 314.150 128.792,313.543 128.050,313.421 127.665 C 312.959 126.209,306.689 125.460,304.200 126.563 M259.700 128.848 C 258.244 129.268,258.018 129.825,259.157 130.186 C 259.951 130.438,260.484 131.506,261.180 134.236 C 261.409 135.137,261.947 136.190,262.376 136.578 C 262.896 137.049,263.314 138.269,263.633 140.242 C 264.505 145.653,265.481 142.909,265.057 136.235 C 264.633 129.548,263.769 127.822,261.154 128.436 C 261.069 128.456,260.415 128.641,259.700 128.848 M206.180 131.185 C 207.049 131.387,208.039 131.894,208.380 132.312 C 208.721 132.730,209.570 133.297,210.266 133.571 C 211.033 133.873,211.727 134.540,212.027 135.265 C 212.300 135.923,212.930 136.729,213.428 137.055 C 216.356 138.974,214.596 140.921,210.099 140.739 C 206.610 140.598,204.980 141.260,207.579 141.764 C 208.250 141.894,209.328 142.102,209.972 142.226 C 211.597 142.538,212.147 143.340,211.877 145.001 C 211.406 147.908,208.047 149.575,203.894 148.962 C 202.522 148.760,200.230 148.731,198.800 148.898 C 194.988 149.343,192.630 148.696,191.385 146.864 C 189.476 144.054,190.120 142.654,193.658 141.924 C 196.820 141.271,196.205 140.800,192.190 140.800 C 189.206 140.800,188.779 140.708,188.387 139.977 C 187.818 138.913,188.262 136.899,189.128 136.619 C 189.498 136.500,190.107 135.862,190.481 135.201 C 190.856 134.540,191.666 133.785,192.281 133.523 C 192.897 133.261,193.683 132.704,194.029 132.287 C 195.148 130.937,202.308 130.288,206.180 131.185 M197.776 139.013 C 198.278 139.392,199.492 139.600,201.200 139.600 C 202.908 139.600,204.122 139.392,204.624 139.013 C 205.322 138.484,204.979 138.425,201.200 138.425 C 197.421 138.425,197.078 138.484,197.776 139.013 M255.701 143.800 C 255.705 144.680,255.787 144.993,255.883 144.495 C 255.979 143.998,255.975 143.278,255.875 142.895 C 255.775 142.513,255.696 142.920,255.701 143.800 M356.804 143.002 C 358.158 143.702,360.202 146.932,359.769 147.688 C 356.994 152.537,352.932 153.084,351.030 148.866 C 349.871 146.297,350.985 143.387,353.326 142.861 C 355.651 142.340,355.512 142.334,356.804 143.002 M283.740 148.300 C 283.356 149.125,282.922 149.890,282.777 150.000 C 282.018 150.572,281.254 152.911,281.012 155.400 C 280.664 158.982,279.761 162.253,279.043 162.528 C 278.347 162.795,277.747 166.707,278.314 167.274 C 278.580 167.540,278.865 167.227,279.165 166.337 C 280.670 161.880,284.000 162.827,284.000 167.712 C 284.000 170.861,284.396 172.184,285.056 171.241 C 285.359 170.809,285.991 170.397,286.461 170.327 C 287.100 170.232,287.478 169.680,287.958 168.142 C 288.311 167.010,288.947 165.701,289.370 165.233 C 290.114 164.411,290.117 164.308,289.454 162.205 C 289.077 161.008,288.599 158.538,288.391 156.715 C 288.095 154.114,287.660 152.689,286.372 150.100 C 284.464 146.264,284.633 146.379,283.740 148.300 M232.931 149.800 C 232.933 151.340,233.005 151.921,233.092 151.091 C 233.179 150.261,233.177 149.001,233.089 148.291 C 233.000 147.581,232.929 148.260,232.931 149.800 M125.398 150.230 C 123.984 151.774,123.705 152.691,123.337 157.009 C 123.025 160.677,123.955 161.937,124.893 159.117 C 126.052 155.633,128.825 155.765,129.368 159.329 C 129.475 160.028,129.685 161.320,129.834 162.200 L 130.105 163.800 130.635 162.600 C 131.805 159.946,131.109 153.244,129.518 151.851 C 128.984 151.383,128.303 150.505,128.006 149.900 C 127.302 148.469,126.973 148.511,125.398 150.230 M258.534 152.000 C 258.534 153.650,258.605 154.325,258.691 153.500 C 258.778 152.675,258.778 151.325,258.691 150.500 C 258.605 149.675,258.534 150.350,258.534 152.000 M143.852 152.100 C 143.240 154.382,143.917 158.276,144.548 156.106 C 145.020 154.481,144.953 151.200,144.447 151.200 C 144.252 151.200,143.985 151.605,143.852 152.100 M141.442 158.235 C 141.026 159.320,141.179 168.277,141.602 167.554 C 142.170 166.581,142.601 158.172,142.098 157.861 C 141.870 157.720,141.575 157.888,141.442 158.235 M251.978 159.654 C 251.383 161.089,252.021 189.990,252.696 192.200 C 253.483 194.779,253.936 174.382,253.339 163.263 C 253.065 158.177,252.838 157.576,251.978 159.654 M163.988 176.220 C 163.968 186.016,163.379 191.892,162.252 193.563 C 161.636 194.475,161.182 195.877,161.010 197.400 C 160.604 200.989,160.005 203.071,159.159 203.837 C 158.613 204.332,158.400 205.067,158.400 206.462 L 158.400 208.400 159.965 208.400 C 161.698 208.400,161.545 208.737,162.239 203.400 C 162.537 201.104,163.386 198.800,163.933 198.800 C 165.333 198.800,166.163 184.824,165.275 176.211 C 164.573 169.402,164.003 169.406,163.988 176.220 M152.680 176.535 C 152.508 177.159,151.557 178.535,150.567 179.594 C 148.797 181.487,148.764 181.570,148.683 184.460 L 148.600 187.400 149.969 188.083 C 150.722 188.459,151.701 189.340,152.144 190.040 C 153.283 191.840,153.548 190.912,153.525 185.200 C 153.500 178.996,153.108 174.979,152.680 176.535 M235.471 179.550 C 235.115 181.323,235.197 198.310,235.567 199.600 C 235.839 200.551,235.879 200.521,236.377 199.000 C 238.077 193.808,240.020 195.239,241.017 202.415 C 241.678 207.178,242.650 208.978,244.400 208.681 C 245.451 208.502,245.154 199.475,244.048 197.979 C 243.581 197.348,243.194 196.600,243.187 196.316 C 243.169 195.558,241.624 193.955,239.704 192.702 C 237.355 191.167,236.924 190.081,236.583 184.814 C 236.216 179.148,235.875 177.534,235.471 179.550 M292.400 179.219 C 292.400 179.709,291.920 180.310,291.203 180.719 C 289.560 181.653,289.683 181.868,291.987 182.089 C 294.556 182.336,295.194 182.900,295.223 184.949 C 295.236 185.857,295.380 187.320,295.543 188.200 L 295.840 189.800 296.134 187.413 C 296.295 186.099,296.307 183.534,296.159 181.713 L 295.890 178.400 294.145 178.400 C 292.653 178.400,292.400 178.519,292.400 179.219 M127.067 180.267 C 126.920 180.413,126.799 180.818,126.798 181.167 C 126.793 182.412,125.973 184.728,125.059 186.075 C 122.935 189.206,123.495 191.905,126.119 191.175 C 127.932 190.670,128.091 190.308,128.781 185.115 C 129.392 180.518,128.719 178.615,127.067 180.267 M263.641 182.723 C 263.214 183.521,263.737 192.670,264.238 193.172 C 265.289 194.222,265.555 184.470,264.525 182.636 C 264.109 181.895,264.083 181.898,263.641 182.723 M281.027 197.870 C 280.663 200.988,280.044 202.836,279.113 203.590 C 277.811 204.645,277.929 208.542,279.303 209.815 C 280.280 210.721,280.598 211.508,281.393 215.000 L 281.667 216.200 282.245 214.827 C 283.226 212.496,283.352 208.180,282.619 201.984 C 281.853 195.519,281.430 194.424,281.027 197.870 M106.759 198.300 C 106.512 200.130,106.990 201.496,108.237 202.529 C 108.986 203.150,109.600 203.919,109.600 204.238 C 109.600 204.556,110.015 205.006,110.523 205.238 C 111.091 205.497,111.745 206.435,112.223 207.678 C 112.650 208.788,113.232 209.787,113.515 209.897 C 114.282 210.195,115.061 211.958,115.373 214.100 C 115.525 215.145,115.814 216.000,116.015 216.000 C 116.769 216.000,117.657 218.014,118.156 220.860 L 118.673 223.800 118.985 221.877 C 119.584 218.190,119.077 213.444,117.939 212.092 C 117.384 211.433,116.699 210.069,116.417 209.061 C 116.103 207.938,115.524 206.980,114.921 206.585 C 114.380 206.231,113.757 205.421,113.535 204.787 C 113.314 204.152,112.778 203.520,112.344 203.382 C 111.909 203.244,111.386 202.690,111.181 202.149 C 110.975 201.609,110.267 200.859,109.606 200.483 C 108.946 200.108,108.404 199.504,108.403 199.143 C 108.400 198.357,106.859 197.567,106.759 198.300 M303.449 201.752 C 303.096 202.496,302.452 203.198,302.017 203.311 C 301.582 203.425,300.918 204.165,300.541 204.955 C 300.164 205.745,299.573 206.486,299.228 206.601 C 298.883 206.717,298.330 207.393,298.000 208.105 C 297.670 208.817,296.995 209.578,296.500 209.795 C 296.005 210.012,295.600 210.501,295.600 210.881 C 295.600 211.262,294.790 212.485,293.800 213.600 C 292.810 214.715,292.000 215.885,292.000 216.201 C 292.000 216.517,291.478 217.162,290.841 217.633 C 290.204 218.104,289.581 218.995,289.458 219.612 C 289.334 220.229,288.711 221.334,288.074 222.067 C 287.436 222.800,286.687 224.097,286.410 224.950 C 286.117 225.850,285.591 226.582,285.156 226.696 C 284.430 226.885,283.967 228.041,283.340 231.222 C 283.190 231.980,282.652 233.233,282.143 234.006 C 280.836 235.992,280.184 240.861,280.937 243.013 L 281.492 244.600 281.951 242.200 C 282.697 238.301,283.545 236.978,285.213 237.109 C 286.869 237.240,287.745 238.182,287.185 239.229 C 286.713 240.111,286.669 248.000,287.136 248.000 C 287.320 248.000,287.701 246.458,287.981 244.574 C 288.368 241.969,288.708 240.939,289.397 240.274 C 290.023 239.671,290.388 238.717,290.573 237.200 C 290.962 234.013,291.637 232.009,292.470 231.562 C 292.872 231.348,293.200 230.758,293.200 230.253 C 293.200 227.071,294.138 224.697,296.330 222.329 L 298.530 219.952 299.365 220.787 C 300.595 222.018,300.597 228.192,299.368 229.866 C 298.333 231.276,297.268 241.717,298.061 242.673 C 298.680 243.419,298.706 243.364,299.376 239.859 C 299.701 238.160,300.342 236.243,300.800 235.600 C 301.380 234.786,301.750 233.364,302.020 230.915 C 302.544 226.172,303.160 223.178,303.829 222.125 C 304.135 221.644,304.573 220.384,304.802 219.325 C 306.046 213.577,307.912 213.345,309.030 218.800 C 309.188 219.570,309.336 223.785,309.358 228.167 C 309.400 236.058,309.917 238.844,310.595 234.830 C 310.997 232.450,312.364 230.626,313.855 230.479 L 315.085 230.358 314.549 228.079 C 314.254 226.826,314.010 224.615,314.006 223.167 C 313.998 219.732,313.257 216.044,312.335 214.846 C 311.931 214.321,311.600 213.563,311.600 213.160 C 311.600 211.997,310.371 208.690,309.552 207.648 C 309.140 207.124,308.605 205.961,308.363 205.062 C 307.942 203.499,305.369 200.400,304.493 200.400 C 304.272 200.400,303.802 201.009,303.449 201.752 M129.399 206.300 C 129.009 207.345,128.220 208.592,127.645 209.070 C 126.269 210.216,126.902 211.004,128.802 210.511 C 130.296 210.124,131.523 207.340,131.042 205.426 C 130.664 203.917,130.196 204.165,129.399 206.300 M258.400 205.446 C 258.400 207.038,257.150 211.035,256.288 212.200 C 255.315 213.515,254.694 227.737,255.478 230.762 L 255.825 232.100 257.291 229.724 C 258.625 227.564,258.816 226.879,259.395 222.179 C 260.491 213.284,262.577 212.655,263.637 220.900 C 264.370 226.599,264.879 225.700,264.730 218.971 C 264.619 213.976,264.502 213.088,263.917 212.761 C 263.348 212.443,262.770 210.978,261.758 207.291 C 261.681 207.011,261.299 206.669,260.909 206.531 C 260.519 206.394,259.795 205.916,259.300 205.471 C 258.414 204.673,258.400 204.673,258.400 205.446 M197.070 205.726 C 196.071 205.966,195.392 206.420,195.112 207.032 C 194.877 207.549,193.991 208.452,193.142 209.040 C 192.294 209.628,191.600 210.247,191.600 210.417 C 191.600 210.586,190.655 211.399,189.500 212.222 C 188.345 213.046,187.264 213.949,187.097 214.230 C 186.930 214.510,186.193 214.938,185.459 215.181 C 184.725 215.423,183.892 216.055,183.608 216.584 C 183.325 217.114,182.577 217.761,181.947 218.022 C 181.269 218.303,180.800 218.800,180.800 219.237 C 180.800 219.643,180.260 220.375,179.600 220.863 C 178.940 221.351,178.400 221.994,178.400 222.291 C 178.400 223.235,176.898 225.781,176.033 226.303 C 175.540 226.602,175.200 227.221,175.200 227.823 C 175.200 228.976,174.153 231.198,173.323 231.806 C 173.018 232.029,172.509 233.454,172.191 234.973 C 171.872 236.502,171.260 238.110,170.821 238.578 C 170.253 239.183,169.849 240.608,169.400 243.602 C 169.048 245.946,168.358 248.665,167.829 249.791 C 166.945 251.676,166.438 257.527,166.739 262.380 C 166.839 263.990,167.498 262.813,167.960 260.200 C 168.287 258.349,168.629 257.617,169.454 257.000 C 170.043 256.560,170.972 255.795,171.520 255.300 C 172.946 254.012,172.940 254.010,174.735 256.364 C 175.664 257.581,176.258 257.223,176.592 255.247 C 177.230 251.470,182.188 249.507,182.992 252.712 C 183.411 254.382,185.575 254.390,188.400 252.732 C 190.238 251.654,192.425 250.833,194.128 250.584 C 195.385 250.399,196.219 250.033,196.528 249.530 C 196.787 249.106,197.785 248.409,198.743 247.983 C 199.702 247.556,201.104 246.665,201.857 246.003 C 202.611 245.341,203.569 244.800,203.987 244.800 C 204.404 244.800,204.850 244.472,204.977 244.071 C 205.105 243.670,205.935 242.934,206.822 242.436 C 207.710 241.937,208.900 241.098,209.468 240.572 C 210.035 240.046,211.093 239.401,211.817 239.139 C 212.541 238.877,213.313 238.270,213.532 237.788 C 213.766 237.275,214.444 236.811,215.172 236.666 C 215.987 236.503,216.540 236.083,216.784 235.443 C 216.987 234.907,217.479 234.364,217.877 234.235 C 218.275 234.107,219.492 233.192,220.583 232.201 C 221.674 231.211,222.685 230.400,222.829 230.400 C 223.300 230.400,227.462 226.221,227.808 225.400 C 227.994 224.960,228.158 223.555,228.173 222.277 C 228.196 220.289,228.344 219.844,229.200 219.186 L 230.200 218.418 228.264 218.409 C 226.791 218.402,226.170 218.595,225.664 219.217 C 224.778 220.308,220.351 220.523,219.352 219.524 C 218.634 218.805,219.617 216.840,220.709 216.813 C 220.988 216.806,221.421 216.353,221.670 215.806 C 222.070 214.929,224.815 213.205,225.826 213.197 C 226.032 213.195,226.604 212.487,227.097 211.622 L 227.995 210.051 226.797 209.198 C 226.139 208.729,225.600 208.116,225.600 207.835 C 225.600 206.062,215.760 205.915,213.717 207.657 C 212.778 208.458,211.128 209.051,208.300 209.606 C 207.035 209.854,206.000 210.220,206.000 210.420 C 206.000 210.899,203.038 212.400,202.094 212.400 C 201.688 212.400,200.748 212.848,200.005 213.396 C 197.653 215.132,195.738 211.047,197.960 209.036 C 199.822 207.351,199.244 205.204,197.070 205.726 M271.633 221.500 C 271.180 222.105,270.629 222.815,270.409 223.078 C 269.490 224.178,269.142 233.200,270.019 233.200 C 270.203 233.200,270.970 232.837,271.722 232.393 C 273.845 231.141,275.169 233.505,275.247 238.687 C 275.273 240.399,275.422 242.340,275.578 243.000 L 275.860 244.200 276.364 242.433 C 277.143 239.696,276.328 229.543,275.215 228.128 C 274.348 227.026,273.832 225.360,273.412 222.300 C 273.112 220.114,272.783 219.966,271.633 221.500 M132.464 221.296 C 132.209 221.551,132.000 221.982,132.000 222.253 C 132.000 222.524,131.483 223.113,130.852 223.563 C 130.221 224.013,129.603 224.880,129.480 225.490 C 129.357 226.101,128.704 227.217,128.028 227.972 C 127.353 228.727,126.800 229.606,126.800 229.926 C 126.800 231.123,125.852 233.608,125.079 234.437 C 123.645 235.977,122.770 243.970,123.583 248.099 C 124.298 251.729,124.479 252.008,124.848 250.040 C 125.171 248.321,126.682 245.608,127.320 245.603 C 127.990 245.597,128.806 248.500,129.197 252.277 C 129.909 259.160,129.990 259.543,130.774 259.792 C 131.369 259.981,131.590 260.744,131.968 263.912 C 132.223 266.050,132.547 268.610,132.688 269.600 L 132.944 271.400 133.270 270.000 C 133.776 267.826,133.198 258.687,132.523 258.193 C 130.451 256.678,130.351 235.058,132.394 230.600 C 133.819 227.493,133.876 219.884,132.464 221.296 M145.500 224.884 C 144.497 226.130,143.981 227.312,143.615 229.200 C 143.337 230.630,142.770 232.288,142.354 232.885 C 140.732 235.213,139.685 245.580,140.360 252.633 C 141.433 263.830,141.646 263.710,142.027 251.697 C 142.382 240.474,142.636 239.619,145.624 239.606 C 148.718 239.593,149.248 241.151,149.497 251.000 C 149.686 258.520,150.056 261.062,150.601 258.594 C 151.700 253.619,153.604 252.565,155.377 255.950 C 156.129 257.386,156.606 254.008,156.584 247.400 C 156.564 241.616,156.302 240.151,155.020 238.661 C 154.479 238.032,153.822 236.510,153.553 235.261 C 153.265 233.922,152.710 232.674,152.191 232.200 C 151.709 231.760,150.990 230.500,150.593 229.400 C 150.197 228.300,149.451 227.004,148.936 226.519 C 148.421 226.035,148.000 225.292,148.000 224.868 C 148.000 223.086,146.940 223.093,145.500 224.884 M315.734 234.000 C 315.734 235.650,315.805 236.325,315.891 235.500 C 315.978 234.675,315.978 233.325,315.891 232.500 C 315.805 231.675,315.734 232.350,315.734 234.000 M87.600 233.262 C 79.879 234.550,78.122 235.454,81.197 236.560 C 82.362 236.979,83.266 237.578,83.408 238.025 C 83.550 238.472,84.268 238.949,85.161 239.189 C 85.992 239.413,87.017 239.977,87.436 240.441 C 87.856 240.905,88.876 241.630,89.702 242.052 C 90.529 242.474,91.429 243.190,91.702 243.643 C 91.976 244.096,92.875 244.815,93.700 245.241 C 94.525 245.668,95.200 246.286,95.200 246.615 C 95.200 246.944,95.836 247.516,96.612 247.887 C 97.396 248.260,98.123 248.950,98.245 249.437 C 98.388 250.006,98.876 250.395,99.641 250.548 C 100.551 250.730,100.871 251.056,101.058 251.992 C 101.197 252.684,101.553 253.200,101.893 253.200 C 102.271 253.200,102.397 252.969,102.241 252.563 C 102.107 252.212,101.894 251.515,101.768 251.013 C 101.642 250.511,101.098 249.900,100.560 249.655 C 99.964 249.383,99.490 248.751,99.347 248.035 C 99.190 247.249,98.744 246.708,98.000 246.400 C 97.263 246.095,96.810 245.551,96.657 244.787 C 96.510 244.051,96.001 243.414,95.250 243.026 C 93.463 242.102,93.291 240.635,94.856 239.658 C 96.027 238.927,99.869 239.758,100.205 240.815 C 100.352 241.279,101.065 241.748,102.007 242.002 C 102.865 242.233,103.674 242.597,103.807 242.811 C 104.292 243.597,105.094 243.166,105.449 241.929 C 105.666 241.172,106.285 240.396,106.979 240.012 C 108.651 239.085,108.620 238.671,106.807 237.652 C 105.923 237.155,105.200 236.510,105.200 236.217 C 105.200 235.566,104.661 235.347,102.151 234.977 C 101.078 234.819,99.233 234.264,98.050 233.745 C 95.708 232.715,91.925 232.541,87.600 233.262 M295.406 245.555 C 295.100 247.779,295.742 249.850,296.162 247.994 C 296.608 246.023,296.597 243.883,296.140 243.722 C 295.855 243.622,295.577 244.315,295.406 245.555 M104.000 255.576 C 104.000 256.029,104.180 256.400,104.400 256.400 C 104.620 256.400,104.800 256.141,104.800 255.824 C 104.800 255.507,104.620 255.136,104.400 255.000 C 104.180 254.864,104.000 255.123,104.000 255.576 M181.200 255.800 C 181.200 256.167,181.394 256.402,181.630 256.323 C 181.867 256.245,182.060 256.009,182.060 255.800 C 182.060 255.591,181.867 255.356,181.630 255.277 C 181.394 255.198,181.200 255.433,181.200 255.800 M220.113 305.338 C 220.821 305.634,221.637 306.162,221.927 306.512 C 223.024 307.835,218.164 312.800,215.772 312.800 C 215.241 312.800,215.285 312.940,215.994 313.515 C 216.480 313.908,217.355 315.052,217.939 316.056 C 218.522 317.060,219.330 318.349,219.733 318.921 C 220.136 319.492,220.736 320.998,221.068 322.267 C 221.399 323.536,222.002 324.806,222.407 325.090 C 222.838 325.392,223.348 326.560,223.635 327.903 C 223.906 329.170,224.535 330.649,225.038 331.200 C 226.150 332.421,226.800 334.057,226.800 335.639 C 226.800 336.337,227.053 336.922,227.415 337.061 C 228.232 337.375,228.979 338.919,229.609 341.593 C 230.495 345.361,230.742 342.951,230.772 330.246 C 230.813 312.853,229.987 313.999,242.480 314.002 C 250.957 314.004,253.851 314.346,254.252 315.392 C 254.367 315.691,255.374 316.154,256.490 316.422 C 259.153 317.060,262.979 320.544,263.684 322.972 C 263.943 323.868,264.557 325.140,265.048 325.800 C 266.688 328.007,266.643 336.025,264.987 336.660 C 264.687 336.776,264.136 337.799,263.763 338.935 C 263.123 340.884,260.148 344.400,259.139 344.400 C 258.931 344.400,258.365 344.858,257.881 345.419 C 257.206 346.199,256.418 346.519,254.514 346.786 C 253.146 346.978,251.621 347.420,251.125 347.768 C 249.947 348.593,235.290 348.708,233.874 347.904 C 231.679 346.658,230.296 346.534,229.262 347.493 C 226.717 349.851,220.619 348.310,219.176 344.944 C 218.645 343.705,218.194 343.200,217.618 343.200 C 217.172 343.200,216.611 342.885,216.371 342.500 C 215.985 341.881,215.423 341.823,211.502 342.000 L 207.069 342.200 206.634 343.400 C 204.286 349.890,194.288 350.623,193.686 344.349 C 193.511 342.535,193.573 342.378,194.725 341.717 C 195.773 341.116,196.024 340.640,196.463 338.433 C 196.764 336.920,197.360 335.396,197.904 334.750 C 198.414 334.143,199.098 332.601,199.425 331.324 C 199.751 330.046,200.353 328.717,200.764 328.372 C 201.174 328.027,201.741 326.716,202.022 325.459 C 202.305 324.191,202.951 322.722,203.471 322.162 C 203.986 321.606,204.593 320.322,204.820 319.309 C 205.047 318.297,205.751 316.879,206.383 316.158 C 207.139 315.297,207.691 314.052,207.994 312.524 C 208.646 309.237,208.798 308.800,209.288 308.800 C 209.527 308.800,210.407 308.059,211.243 307.153 C 213.312 304.912,217.194 304.118,220.113 305.338 M111.371 314.629 C 111.717 314.974,112.000 315.404,112.000 315.583 C 112.000 315.762,112.612 316.199,113.361 316.555 C 114.193 316.949,114.879 317.652,115.127 318.363 C 115.350 319.002,115.898 319.641,116.346 319.783 C 116.793 319.925,117.262 320.366,117.388 320.764 C 117.515 321.161,118.339 322.268,119.221 323.223 C 120.103 324.178,120.929 325.374,121.056 325.880 C 121.679 328.362,122.387 326.227,122.395 321.846 C 122.405 315.537,123.641 314.004,128.720 314.001 C 135.007 313.998,135.200 314.491,135.200 330.584 C 135.200 343.152,135.476 345.211,136.537 340.561 C 136.869 339.106,137.496 337.529,137.930 337.058 C 138.365 336.586,139.034 335.067,139.418 333.682 C 139.801 332.298,140.414 330.948,140.780 330.682 C 141.145 330.417,141.767 328.992,142.162 327.516 C 142.557 326.039,143.160 324.599,143.502 324.316 C 144.305 323.649,145.200 321.501,145.200 320.237 C 145.200 319.382,146.293 317.784,148.988 314.700 C 150.165 313.353,156.496 313.702,158.063 315.200 C 158.754 315.860,159.443 316.400,159.595 316.400 C 160.005 316.400,160.713 318.117,161.024 319.864 C 161.174 320.709,161.703 321.850,162.200 322.400 C 162.696 322.950,163.330 324.390,163.609 325.600 C 163.892 326.830,164.528 328.219,165.052 328.749 C 165.949 329.657,166.793 331.845,166.798 333.271 C 166.799 333.641,167.035 334.181,167.322 334.471 C 167.971 335.127,168.971 336.976,169.624 338.725 L 170.118 340.051 171.810 338.390 C 174.139 336.105,178.400 336.013,178.400 338.249 C 178.400 338.624,178.905 338.800,179.981 338.800 C 182.079 338.800,182.395 337.668,182.398 330.149 C 182.400 323.469,182.532 323.671,178.158 323.643 C 172.934 323.609,170.486 321.342,172.008 317.949 C 173.811 313.933,173.622 314.000,183.096 314.000 C 195.431 314.000,194.800 313.216,194.800 328.547 C 194.800 340.066,194.731 340.800,193.640 340.800 C 193.178 340.800,192.813 341.373,192.478 342.623 C 191.877 344.870,190.589 346.211,188.487 346.777 C 187.604 347.014,186.789 347.452,186.675 347.748 C 185.925 349.704,177.498 349.593,175.197 347.597 C 173.817 346.401,172.013 346.417,170.458 347.640 C 169.221 348.613,163.983 348.744,163.217 347.820 C 162.952 347.502,162.155 347.049,161.445 346.815 C 160.401 346.470,160.020 346.015,159.451 344.434 C 158.634 342.163,157.827 341.854,153.000 341.968 C 149.162 342.059,146.928 342.994,146.619 344.639 C 146.056 347.640,139.259 349.781,136.624 347.787 C 135.630 347.036,132.831 347.051,131.824 347.813 C 130.794 348.591,127.061 348.597,126.417 347.820 C 126.152 347.502,125.316 347.036,124.559 346.786 C 123.582 346.464,122.949 345.877,122.383 344.766 C 121.943 343.905,121.313 343.200,120.982 343.200 C 120.651 343.200,120.221 342.795,120.026 342.300 C 119.831 341.805,119.044 340.744,118.277 339.943 C 117.510 339.142,116.648 337.837,116.361 337.043 C 115.342 334.224,114.400 336.228,114.400 341.216 L 114.400 344.795 112.623 346.598 C 109.764 349.498,104.291 349.165,102.701 345.994 C 101.046 342.695,101.820 316.580,103.626 314.774 C 104.657 313.743,110.379 313.636,111.371 314.629 M287.081 314.784 C 288.310 315.534,289.600 317.415,289.600 318.459 C 289.600 318.733,290.063 319.625,290.628 320.440 C 291.193 321.256,291.928 322.976,292.260 324.262 C 292.593 325.548,293.298 327.057,293.827 327.616 C 294.404 328.226,294.951 329.487,295.194 330.771 C 295.448 332.108,295.966 333.276,296.579 333.888 C 297.179 334.489,297.745 335.742,298.042 337.133 C 298.308 338.380,298.841 339.670,299.227 340.000 C 300.354 340.965,301.230 344.102,300.795 345.618 C 299.397 350.492,290.958 349.212,288.097 343.692 L 287.323 342.200 282.862 342.087 C 280.120 342.017,278.400 342.126,278.400 342.368 C 278.400 342.585,277.786 343.054,277.036 343.410 C 276.166 343.823,275.575 344.444,275.404 345.126 C 274.853 347.321,272.960 348.366,269.500 348.384 C 265.194 348.406,263.685 346.765,264.748 343.217 C 264.996 342.387,265.200 341.392,265.200 341.006 C 265.200 340.621,265.722 339.711,266.360 338.984 C 267.068 338.178,267.698 336.833,267.976 335.532 C 268.227 334.359,268.857 332.770,269.377 332.000 C 269.896 331.230,270.611 329.573,270.966 328.319 C 271.321 327.064,271.934 325.804,272.328 325.519 C 272.723 325.233,273.268 323.985,273.543 322.736 C 273.817 321.491,274.454 320.027,274.959 319.482 C 275.463 318.938,276.186 317.718,276.565 316.771 C 277.561 314.280,278.079 314.027,282.200 314.014 C 285.080 314.005,286.056 314.159,287.081 314.784 M243.500 324.230 C 243.335 324.397,243.200 327.163,243.200 330.378 C 243.200 338.639,243.672 339.094,250.004 336.950 L 253.105 335.900 253.352 334.094 C 253.948 329.747,253.558 326.967,252.294 326.566 C 251.844 326.423,251.038 325.835,250.505 325.259 C 249.519 324.195,244.293 323.427,243.500 324.230 M152.656 329.399 C 152.078 330.906,152.589 333.776,153.250 332.734 C 153.436 332.440,153.588 331.660,153.588 331.000 C 153.588 329.433,153.018 328.454,152.656 329.399 M212.239 329.557 C 211.707 330.145,211.631 330.606,211.896 331.629 C 212.477 333.874,213.200 333.544,213.200 331.033 C 213.200 328.526,213.188 328.508,212.239 329.557 M281.377 329.717 C 280.925 330.895,281.369 332.988,282.100 333.126 C 282.671 333.234,282.800 332.967,282.800 331.678 C 282.800 329.962,281.807 328.594,281.377 329.717 " stroke="none" fill="#fbfbfb" fill-rule="evenodd"></path></g></svg>