<?xml version="1.0" standalone="no"?>
<!DOCTYPE svg PUBLIC "-//W3C//DTD SVG 20010904//EN"
 "http://www.w3.org/TR/2001/REC-SVG-20010904/DTD/svg10.dtd">
<svg version="1.0" xmlns="http://www.w3.org/2000/svg"
 width="392.000000pt" height="378.000000pt" viewBox="0 0 392.000000 378.000000"
 preserveAspectRatio="xMidYMid meet">

<g transform="translate(0.000000,378.000000) scale(0.100000,-0.100000)"
fill="#000000" stroke="none">
<path d="M1835 3554 c-214 -30 -417 -90 -571 -167 -470 -236 -798 -661 -916
-1188 -21 -93 -23 -128 -22 -334 0 -200 3 -244 23 -335 75 -352 223 -624 475
-876 245 -244 521 -392 866 -466 91 -19 136 -22 330 -22 196 0 238 2 330 22
558 120 1005 480 1229 990 91 206 130 381 138 618 11 332 -57 622 -214 898
-133 235 -325 441 -548 589 -170 112 -380 199 -585 244 -95 20 -149 25 -310
28 -107 2 -208 1 -225 -1z m375 -184 c645 -80 1161 -557 1301 -1202 26 -121
35 -352 20 -483 -76 -655 -557 -1180 -1206 -1316 -118 -25 -361 -35 -485 -20
-350 43 -657 194 -905 445 -205 207 -345 471 -406 761 -25 120 -35 352 -20
480 79 682 600 1224 1277 1329 109 17 310 20 424 6z"/>
<path d="M1390 3069 c-133 -70 -237 -148 -343 -258 -184 -190 -300 -407 -358
-672 -30 -135 -33 -377 -6 -512 109 -539 505 -953 1032 -1077 133 -32 286 -43
405 -31 202 20 250 40 250 107 0 38 -30 79 -64 88 -18 4 -83 -15 -216 -64
-224 -82 -264 -87 -304 -39 -34 40 -35 97 -3 133 16 19 113 61 362 155 226 86
346 137 358 152 28 35 22 83 -14 113 -17 14 -39 26 -49 26 -10 0 -179 -59
-376 -132 -384 -141 -416 -149 -459 -108 -49 46 -41 136 16 165 15 8 121 49
236 91 356 130 362 132 379 166 28 55 -12 128 -71 128 -13 0 -231 -77 -486
-171 -507 -186 -505 -186 -553 -128 -47 55 -27 132 41 162 21 9 180 68 353
132 336 123 360 136 360 196 0 36 -47 89 -79 89 -11 0 -111 -34 -222 -75 -223
-83 -265 -90 -304 -51 -45 45 -42 128 7 160 13 8 214 85 448 170 451 165 470
175 470 236 0 42 -44 90 -83 90 -17 0 -295 -97 -617 -215 -364 -133 -600 -215
-622 -215 -53 0 -89 34 -95 91 -9 82 -16 78 536 282 469 172 496 184 514 214
16 28 17 38 7 68 -11 33 -51 65 -80 65 -6 0 -151 -52 -323 -115 -171 -63 -323
-115 -337 -115 -14 0 -39 9 -57 20 -51 31 -58 116 -13 158 11 10 165 71 342
137 483 177 526 194 543 218 22 32 18 72 -11 106 -32 39 -61 40 -150 6 -113
-43 -150 -31 -216 67 -28 41 -49 39 -148 -13z"/>
</g>
</svg>
